<?xml version="1.0" encoding="utf-8"?>
<!-- Generator: Adobe Illustrator 17.0.2, SVG Export Plug-In . SVG Version: 6.00 Build 0)  -->
<!DOCTYPE svg PUBLIC "-//W3C//DTD SVG 1.1//EN" "http://www.w3.org/Graphics/SVG/1.1/DTD/svg11.dtd">
<svg version="1.1" id="Layer_1" xmlns="http://www.w3.org/2000/svg" xmlns:xlink="http://www.w3.org/1999/xlink" x="0px" y="0px"
	 width="841.89px" height="595.276px" viewBox="-123.307 123.307 841.89 595.276"
	 enable-background="new -123.307 123.307 841.89 595.276" xml:space="preserve">
<path d="M-104.997,546.832c1.541,1.104,3.785,3.505,2.64,5.76C-104.627,552.201-104.976,548.679-104.997,546.832z"/>
<path d="M-86.277,486.833c0.15-0.513,1.477-0.225,1.68,0C-84.747,487.345-86.074,487.057-86.277,486.833z"/>
<path d="M-81.957,244.433c0.321,1.111-0.568,2.9-1.68,3.359C-84.263,246.376-83.401,244.56-81.957,244.433z"/>
<path d="M-77.157,346.913c1.194,2.014-1.119,4.189-3.36,4.318C-81.294,348.821-79.338,347.157-77.157,346.913z"/>
<path d="M-77.157,246.833c0.412-1.1-0.723-3.338,1.44-3.121c-0.345-1.826,0.593-3.969,1.92-2.639c-0.229,0.65-0.863,0.896-1.2,1.439
	c2.541,0.57,2.433,4.266,1.2,6.24c-1.032-0.514-2.093,0.203-2.88-0.24c-0.064-0.865,0.443-1.156,0.48-1.92
	C-76.628,246.562-76.703,246.886-77.157,246.833z"/>
<path d="M-72.117,518.992c1.615,2.532,5.485,7.892,2.4,11.28c-3.202-0.414-2.327-5.246-2.64-8.16
	C-72.488,520.894-73.964,519.231-72.117,518.992z"/>
<path d="M-69.957,583.072c1.375,0.849,3.299,3.221,1.92,5.28C-69.928,588.019-70.512,584.307-69.957,583.072z"/>
<path d="M-67.797,525.472c-0.068-0.387,0.227-0.413,0.24-0.72c2.461,0.435,7.783,0.045,8.4,3.12
	C-62.894,528.873-65.019,526.227-67.797,525.472z"/>
<path d="M-61.557,575.152c-0.03-1.224-0.366-1.809,0.72-2.16c1.721-0.557,2.007,1.469,2.88,3.12c1.838,3.475,6.124,6.414,4.56,11.76
	c-0.397,1.358-1.814,2.347-3.6,1.68c-4.544-1.697-3.294-8.928-4.08-12.96C-61.134,576.303-61.549,575.496-61.557,575.152z"/>
<path d="M-60.117,561.232c0.583-1.306,3.615-0.645,5.28-0.72c3.247-0.147,9.09-0.72,8.64,1.92c-0.438,2.573-9.01,0.551-10.08-0.48
	c-1.486,0.017-2.795,0.551-3.84-0.24C-60.117,561.552-60.117,561.393-60.117,561.232z"/>
<path d="M-59.877,210.353c0.587-0.688,1.631-1.949,2.88-1.199C-56.827,210.595-58.878,210.851-59.877,210.353z"/>
<path d="M-47.637,207.232c-2.242,1.473-6.079,1.93-6.24-0.719C-54.086,203.083-45.593,201.204-47.637,207.232z"/>
<path d="M-50.277,216.353c0.375-0.586,0.496-1.424,0.96-1.92c0.879-0.08,1.334,0.266,1.92,0.48c0.415,2.174-1.587,1.932-0.96,4.318
	c-0.561-0.078-0.992-0.287-1.44-0.479c-0.01-0.73-0.14-1.58,0.72-1.441C-49.267,216.782-49.917,216.712-50.277,216.353z"/>
<path d="M-48.837,357.232c0.688,1.713,1.315,3.484,1.2,6C-49.019,362.347-49.054,358.927-48.837,357.232z"/>
<path d="M-39.957,122.993c0.082,1.121-0.518,1.56-0.72,2.398c-2.3,0.762-4.532-0.355-4.08-3.119
	C-43.606,120.595-40.787,121.644-39.957,122.993z"/>
<path d="M-41.877,638.272c2.163-0.238,2.441,3.581,1.2,4.56C-42.274,642.628-42.304,639.715-41.877,638.272z"/>
<path d="M-39.237,575.632c-0.03-1.072,0.038-2.174,1.44-2.16c1.576,0.017,1.532,2.503,2.4,4.32c1.191,2.494,4.022,5.49,3.6,9.84
	c-0.15,1.542-1.168,3.689-2.4,3.84c-2.667,0.326-4.343-4.851-4.56-7.2c-0.187-2.023,0.572-4.276,0.48-5.52
	C-38.354,577.71-39.195,577.131-39.237,575.632z"/>
<path d="M-30.357,221.872c0.627-0.066,1.032,0.088,0.96,0.721C-30.025,222.659-30.429,222.505-30.357,221.872z"/>
<path d="M-27.957,213.952c2.649,0.314,1.399,3.732,0.24,4.801C-29.645,218.028-27.897,215.644-27.957,213.952z"/>
<path d="M-28.437,209.392c0.861-0.141,1.161,0.279,1.68,0.48c-0.117,1.004-0.804,1.436-0.96,2.4
	C-28.711,212.136-28.941,210.259-28.437,209.392z"/>
<path d="M-26.758,206.753c-0.127,1.035-0.069,1.346-0.24,1.92C-27.72,208.649-27.782,206.47-26.758,206.753z"/>
<path d="M-26.758,145.552c2.385,0.896,3.48,3.08,4.8,5.041C-23.611,148.966-25.462,147.536-26.758,145.552z"/>
<path d="M-25.557,205.073c0.425-0.32,1.347,0.35,1.44-0.721c0.633,0.168,0.507,1.092,1.2,1.199c-0.559,0.322-1.494,0.266-1.44,1.201
	c-0.32,0-0.64,0-0.96,0C-25.648,206.442-25.555,205.71-25.557,205.073z"/>
<path d="M-25.077,707.873c0.493-0.555,2.073-0.167,2.64,0C-22.838,708.334-24.651,708.179-25.077,707.873z"/>
<path d="M-24.357,351.232c2.904-1.037,3.676,1.344,6.24,3.842c1.764,1.717,4.25,3.17,4.56,4.559c0.59,2.645-1.323,3.717-2.88,3.6
	c-1.505-0.111-3.225-2.494-4.56-4.078C-22.971,356.81-25.389,354.261-24.357,351.232z"/>
<path d="M-22.917,666.353c4.424-1.968,4.507,4.193,6.96,5.76c2.023,3.871,1.156,9.275-3.12,8.88
	C-24.346,680.506-22.271,670.97-22.917,666.353z"/>
<path d="M-23.157,647.152c0.951,0.09,1.325,0.756,1.44,1.68C-22.803,648.878-23.085,648.121-23.157,647.152z"/>
<path d="M-20.997,577.552c1.539-1.165,3.285-0.1,5.04,0c5.489,0.314,12.244-1.754,16.08,1.68c-4.339,3.411-11.129-0.393-16.32-0.24
	c-1.5,0.044-2.721,0.72-4.08,0.24c-0.315-0.085-0.378-0.422-0.72-0.48C-20.997,578.353-20.997,577.952-20.997,577.552z"/>
<path d="M-15.477,233.632c0.93-0.004,1.376,1.33,0.96,1.92C-15.206,235.28-15.408,234.522-15.477,233.632z"/>
<path d="M-14.037,161.392c1.416,0.106,1.278,1.762,2.4,2.16C-12.32,163.667-13.864,162.583-14.037,161.392z"/>
<path d="M-13.557,493.072c-0.067-0.388,0.227-0.413,0.24-0.72c2.199,0.841,5.124,0.957,6,3.12
	C-9.569,496.616-11.532,493.714-13.557,493.072z"/>
<path d="M-0.117,521.152c1.819-0.161,3.055,0.36,3.12,1.44C3.187,525.646-3.555,523.936-0.117,521.152z"/>
<path d="M6.843,526.913c-0.039,0.279,0.053,0.427,0.24,0.48c0.244,3.289-4.48,2.614-4.32,0.48
	C2.881,526.294,5.296,526.028,6.843,526.913z"/>
<path d="M4.923,130.913c-0.123-1.264,2.044-1.264,1.92,0C6.493,131.265,5.272,131.265,4.923,130.913z"/>
<path d="M5.883,445.552c0.571,0.245,0.664,2.788,0.24,3.84C5.018,448.308,5.289,446.929,5.883,445.552z"/>
<path d="M7.083,327.712c2.529,0.307,1.113,4.617,0.96,6.48C6.964,332.925,6.844,329.505,7.083,327.712z"/>
<path d="M7.322,199.792c0.003-0.637-0.09-1.371,0.24-1.68C8.346,198.183,8.158,199.925,7.322,199.792z"/>
<path d="M8.763,318.112c-0.115-0.756,0.342-0.938,0.479-1.439C9.718,316.858,9.372,318.22,8.763,318.112z"/>
<path d="M8.763,191.392c0.526-0.74,1.243,0.338,1.2,0.961C9.405,192.19,9.32,191.556,8.763,191.392z"/>
<path d="M10.683,541.072c-1.415-3.602,5.106-3.841,5.76-1.68C17.383,542.502,11.759,543.813,10.683,541.072z"/>
<path d="M18.123,142.673c-1.069-1.611,0.559-3.668,1.68-3.84C24.97,138.032,20.578,146.372,18.123,142.673z"/>
<path d="M19.322,590.032c1.192,0.344,0.367,1.606,0.48,2.4c0.417,2.936,1.819,6.278,1.2,9.36
	C18.748,599.818,19.313,592.697,19.322,590.032z"/>
<path d="M20.282,135.472c0.206,0.195,0.143,0.658,0.48,0.721C20.376,139.079,17.091,135.401,20.282,135.472z"/>
<path d="M26.043,553.552C24.62,556.769,22.882,551.632,26.043,553.552L26.043,553.552z"/>
<path d="M28.203,179.392c1.416,1.555,0.604,3.771-0.96,4.08C23.609,184.192,23.154,178.399,28.203,179.392z"/>
<path d="M32.523,564.832c0.587-0.558,2.028-0.63,2.88-0.24C37.194,567.572,30.949,567.78,32.523,564.832z"/>
<path d="M33.963,674.752c1.164-0.035,1.992,1.245,1.44,2.16C34.45,676.665,34.375,675.54,33.963,674.752z"/>
<path d="M35.643,582.353c0.624-0.449,2.292-0.337,2.64,0.24c0.216,1.336-0.219,2.021-0.96,2.4
	C35.895,585.074,34.893,583.673,35.643,582.353z"/>
<path d="M41.403,215.153c0.481,0.51,0.744,2.141,0.24,2.879c-0.279-0.039-0.427,0.053-0.48,0.24
	C38.639,218.38,38.285,214.634,41.403,215.153z"/>
<path d="M43.322,248.513c-2.242-5.814,7.083-8.057,7.68-2.881C51.468,249.667,46.201,251.87,43.322,248.513z"/>
<path d="M45.483,232.433c-0.102-0.502,0.165-0.637,0.24-0.961c0.501,0.381,1.204,0.557,1.2,1.441
	C46.362,232.833,45.931,232.624,45.483,232.433z"/>
<path d="M47.643,215.153c0.861-0.66,1.546-1.494,3.36-1.201c0.652,0.787,1.223,1.658,0.96,3.359
	C50.582,219.149,47.048,218.095,47.643,215.153z"/>
<path d="M48.603,166.433c0.764-0.115,1.004-0.756,1.92-0.721c0.134,0.346,0.375,0.586,0.72,0.721
	c0.169,1.529-0.659,2.061-1.44,2.641C48.651,168.944,48.529,167.786,48.603,166.433z"/>
<path d="M51.483,197.392c-0.193,0.207-0.657,0.143-0.72,0.481C46.722,197.755,51.596,193.407,51.483,197.392z"/>
<path d="M50.763,265.073c1.42-0.141,2.182,0.377,3.12,0.719C56.629,271.425,46.382,269.104,50.763,265.073z"/>
<path d="M50.523,595.072c0.732-0.012,1.222,0.218,1.44,0.72C51.925,597.605,49.401,596.352,50.523,595.072z"/>
<path d="M50.523,235.073c-0.126-1.34,1.032-1.318,1.68-0.721C52.14,235.093,51.213,235.692,50.523,235.073z"/>
<path d="M50.763,394.673c0.104-0.295,0.307-0.494,0.72-0.48c0.568,0.871,1.586,1.293,1.92,2.4
	C51.941,396.534,51.728,395.228,50.763,394.673z"/>
<path d="M55.322,584.752c-3.266,1.38-4.026-2.995-1.44-3.12C55.31,581.563,56.301,582.907,55.322,584.752z"/>
<path d="M54.123,196.913c0.245,1.043-0.497,1.104-0.72,1.68C51.426,198.503,52.406,195.718,54.123,196.913z"/>
<path d="M53.643,211.552c1.007-0.984,2.909-1.65,3.84-0.24C56.98,212.509,54.612,211.954,53.643,211.552z"/>
<path d="M54.363,488.272c0.566,0.234,1.522,0.078,1.44,0.96c-0.703-0.062-0.737,0.543-1.44,0.48
	C54.034,489.406,54.034,488.579,54.363,488.272z"/>
<path d="M57.483,584.272c1.148-0.027,1.601,0.639,2.4,0.96C60.379,590.419,53.703,586.317,57.483,584.272z"/>
<path d="M63.483,392.032c0.6,3.518-6.389,6.977-6.48,1.92C58.302,392.079,60.693,390.56,63.483,392.032z"/>
<path d="M62.282,132.112c0.349-0.354,1.571-0.354,1.92,0c0.206,0.766-0.378,0.742-0.48,1.199
	C62.744,133.411,62.209,133.067,62.282,132.112z"/>
<path d="M63.483,250.192c0.584,0.615,1.565,0.834,1.68,1.92C64.192,251.884,63.879,250.997,63.483,250.192z"/>
<path d="M65.643,391.073c-0.068-0.389,0.227-0.414,0.24-0.721c1.055-0.705,2.046-1.475,2.88-2.4
	c8.414-2.785,13.228-9.172,21.84-11.76c6.72-0.084,9.947-4.928,15.36-5.52c-0.731,2.469-3.518,2.881-5.04,4.559
	c2.578-1.117,10.793,0.984,12.48-2.399c-0.129-2.34-3.46-1.4-5.04-1.68c-2.283-5.148,7.894-4.576,4.32-10.32
	c1.886-3.451,7.907-6.742,5.28-12c-1.263-2.527-8.289-2.291-7.44-6.24c0.275-1.283,1.765-1.893,2.64-1.92
	c3.141-0.1,4.223,4.52,6.72,4.799c2.617,0.293,5.854-2.582,6.24-4.799c0.1-0.574-0.395-1.373-0.24-1.92
	c0.419-1.48,2.518-3.154,3.6-4.56c1.18-1.531,1.922-3.541,3.12-5.039c2.419-3.027,7.087-5.91,11.52-6.48
	c10.458-1.346,18.075,4.102,18,13.92c-0.005,0.613-0.649,1.871-0.48,2.879c0.376,2.252,3.082,2.779,1.92,6
	c-0.453,1.256-1.761,1.461-2.16,3.121c-0.305,1.266,0.288,3.137,0,4.799c-0.196,1.137-1.104,2.057-1.2,3.121
	c-0.155,1.715,0.929,3.342,1.2,5.52c0.302,2.428,0.379,5.99,0,8.16c-0.158,0.902-1.324,2.33-1.2,3.119
	c0.392,2.492,4.536,1.693,5.04,4.561c-2.731,1.773-5.462-2.047-7.68-3.119c-1.571,0.588-2.271,2.049-3.36,3.119
	c0.946,4.15-1.652,5.666-2.88,7.92c-0.923,1.695-0.607,3.627-2.16,4.801c-2.999,1.424-6.232-0.816-8.88-0.48
	c-2.173,0.277-2.512,1.865-4.32,2.881c-3.444-1.252-6.716,0.236-8.64,1.92c-2.499-1.99-5.338,0.377-7.92,0.479
	c-3.061,0.123-5.302-1.672-8.16-2.16c-0.718-1.236-0.007-2.193-0.479-3.359c-1.018-2.508-7.025-4.619-4.08-9.6
	c-2.277-2.344-5.289-0.906-7.44-0.721c-1.518,0.133-2.881-0.141-4.32,0.24c-4.757,1.26-8.418,4.609-12.72,5.76
	c-3.137,0.84-6.024,0.998-8.64,2.4C71.019,389.315,68.939,391.321,65.643,391.073z"/>
<path d="M66.363,253.552c0.907-0.025,1.291,0.471,1.44,1.201C67.489,254.185,66.279,254.517,66.363,253.552z"/>
<path d="M69.242,256.192c0.611,0.029,0.931,0.35,0.96,0.961C69.592,257.124,69.272,256.804,69.242,256.192z"/>
<path d="M84.843,696.112c-3.035,5.286-9.63,7.01-12,12.96c-1.756,0.317-2.085-0.795-3.36-0.96c0-0.16,0-0.32,0-0.48
	c0.627-1.293,1.948-1.892,3.6-2.16C77.263,702.613,79.859,698.168,84.843,696.112z"/>
<path d="M139.563,173.153c1.656-2.518-0.585-9.166,4.08-8.881c1.367,0.084,1.218,1.037,2.64,1.439
	c1.452-0.834,3.053-1.195,4.56-1.92c1.442-0.691,2.731-1.963,4.56-0.24c0.344,0.324-0.003,0.779,0.24,1.201
	c0.215,0.373,1.188,1.055,1.68,1.68c1.457,1.85,2.205,3.799,4.56,4.561c0.497,3.805,3.708,5.947,6.48,8.16
	c1.101-1.92-0.595-3.816,0.48-5.762c1.892-2.664,5.41-2.943,8.16-4.318c2.427-1.215,4.419-3.641,7.68-3.361
	c1.056,2.703,3.05,4.471,5.04,6.24c4.807-1.271,4.764-7.396,9.84-8.4c1.52,0,3.04,0,4.56,0c1.296,1.904,4.123,2.277,5.52,4.08
	c2.766-1.33,5.764,0.328,8.16-0.24c3.014-0.713,4.562-5.521,8.88-4.559c0.73,0.01,0.933-0.508,1.44-0.721
	c6.006-0.646,7.606,3.113,10.32,5.76c1.713,4.021-1.933,9.166-4.32,10.801c-1.622,1.109-3.121,0.961-4.32,2.16
	c-0.371,0.371-0.488,1.223-0.96,1.68c-1.273,1.231-3.259,1.994-4.56,3.359c-1.633,1.717-2.583,3.805-4.8,5.041
	c-2.251,0.867-5.543,0.695-7.92,1.439c-2.286,3.875-2.465,9.854-4.56,13.92c0.75,6.293,3.424,11.932,2.4,19.199
	c-0.914-0.205-1.59-0.648-2.88-0.479c-2.871,1.688-6.956,2.164-10.8,2.879c-2.388-1.883-4.648-7.154-8.64-3.84
	c-1.283-2.793-1.215-5.967-1.92-8.879c-0.82-3.389-2.846-6.084-3.6-9.121c-6.4-1.484-13.584-2.164-19.2-3.359
	c-3.414-2.186-9.611-1.59-10.32-6.481c-2.886-2.875-7.54-3.98-12-5.279c-0.265-0.775-0.345-1.736-0.96-2.16
	c-11.134,0.855-18.729-3.805-24-9.6c-2.217-0.648-4.209-0.191-6.48-0.48c-3.753-0.481-7.355-3.283-11.28-1.92
	c0.086,4.062,2.523,10.893-2.16,11.76c0.433-1.312-0.715-1.045-0.96-1.68c-1.542,0.906-4.979,0.158-7.68,0.479
	c-2.211,0.264-2.128-0.02-4.08-0.719c-1.706-0.611-4.045-0.338-4.8-1.92c-0.787,0.014-0.917,0.682-1.92,0.48
	c0.04-2.996-7.521-2.77-3.84-6.24c-0.376-0.789-0.356-1.059-0.48-1.682c0.693-1.067,1.68-1.84,1.68-3.6
	c3.902-1.514,4.953-4.453,7.2-7.68c2.824,0.137,4.032-2.492,6.72-2.4c0.977,0.035,1.915,0.826,2.88,0.961
	c0.623,0.086,1.533-0.271,2.16-0.24c2.555,0.125,5.35,1.588,8.16,1.92c1.417,0.166,2.886-0.352,4.32,0
	c4.955-3.525,11.201,2.504,16.8-0.48C127.497,168.097,133.29,170.864,139.563,173.153z"/>
<path d="M73.083,251.392c-1.346-1.176-1.904-2.139-1.68-3.6c0.493-3.215,5.885-2.943,6.48-0.24
	C78.459,250.173,76.277,251.774,73.083,251.392z"/>
<path d="M83.163,692.512c0.169-1.209-0.885-1.195-0.96-2.16c0.607-0.193,0.612-0.988,0.96-1.44c1.679-0.319,2.224,0.496,3.12,0.96
	c2.206-1.875,4.366-3.795,6-6.24c2.181-1.783,4.688-3.707,7.2-5.52c2.274-1.641,4.646-4.491,7.92-3.6
	c-6.02,10.904-20.372,15.66-30,24.24c-1.617,1.442-1.71,3.63-4.8,3.12c-0.206-0.194-0.143-0.658-0.48-0.72
	c0.501-2.059,1.729-3.391,4.08-3.6C78.48,695.83,80.634,693.984,83.163,692.512z"/>
<path d="M77.163,152.513c-0.146-0.945,0.537-1.062,1.2-1.201c0.103,0.457,0.517,0.603,0.48,1.201
	C78.522,152.854,77.483,152.854,77.163,152.513z"/>
<path d="M77.883,595.793c-0.81-1.564,2.763-1.999,2.4,0.24C79.991,596.889,77.817,597.173,77.883,595.793z"/>
<path d="M82.683,615.232c0.449,3.028-1.134,6.052-3.84,6.72C77.487,618.839,80.242,616.106,82.683,615.232z"/>
<path d="M85.563,139.073c1.165,2.354-0.106,4.51-2.16,4.318C79.53,143.034,81.59,136.12,85.563,139.073z"/>
<path d="M87.242,585.712c-0.21-1.098,1.895-0.961,1.44,0.24C88.193,586.465,87.733,585.885,87.242,585.712z"/>
<path d="M88.683,410.753c3.641-5.244,10.124,4.393,4.08,5.04C90.455,416.039,88.244,413.917,88.683,410.753z"/>
<path d="M102.603,610.672c1.54-1.295,3.735-0.218,3.36,2.4C104.571,614.968,101.317,613.365,102.603,610.672z"/>
<path d="M106.683,688.672c-0.623,1.376-1.795,2.205-3.36,2.64C103.288,690.319,105.197,688.145,106.683,688.672z"/>
<path d="M104.763,418.913c2.184-1.46,5.376-0.051,4.8,3.36c-0.854,0.746-1.69,1.51-2.64,2.16
	C104.406,424.483,104.116,421.248,104.763,418.913z"/>
<path d="M108.603,138.833c1.303-0.031,1.409,1.451,0.72,2.16C107.496,141.249,107.303,139.284,108.603,138.833z"/>
<path d="M114.363,435.953c-0.8,0-1.6,0-2.4,0C109.459,431.694,117.324,432.663,114.363,435.953z"/>
<path d="M115.563,677.152c-0.613-3.338,4.77-4.26,5.28-0.72C121.32,679.745,116.227,680.767,115.563,677.152z"/>
<path d="M119.403,646.433c0.972,1.259,0.334,2.696-0.72,2.88C116.239,649.737,116.087,645.236,119.403,646.433z"/>
<path d="M117.483,441.953c5.226-3.415,5.256,6.13,0,2.4C117.5,443.139,117.179,442.98,117.483,441.953z"/>
<path d="M119.883,694.433c-1.247-1.655,2.374-1.393,0.96,0.24C120.463,694.652,119.927,694.788,119.883,694.433z"/>
<path d="M123.003,439.793c0.652,0.447,1.081,1.796,0.24,2.4C120.945,442.545,120.823,439.616,123.003,439.793z"/>
<path d="M122.763,430.913c0.154-1.368,1.525-1.368,1.68,0C123.979,431.482,123.226,431.482,122.763,430.913z"/>
<path d="M124.922,636.353c-0.29-1.32,0.368-2.692,1.92-2.88c3.907-0.473,3.853,5.408,0,4.8
	C126.401,638.203,125.263,637.901,124.922,636.353z"/>
<path d="M126.603,430.192c0.193-0.207,0.657-0.143,0.72-0.48c1.607-0.226,2.273,1.152,1.68,2.4
	C127.682,432.719,126.333,431.908,126.603,430.192z"/>
<path d="M126.843,676.433c-0.056-1.177,0.983-1.257,1.92-1.44C128.639,675.929,127.95,677.242,126.843,676.433z"/>
<path d="M127.083,436.913c0.342-0.404,2.447-0.541,2.16,0.48C128.286,437.469,127.469,437.406,127.083,436.913z"/>
<path d="M130.443,666.592c0.342-0.858,1.38-2.029,2.16-1.68C132.772,666.282,131.418,667.137,130.443,666.592z"/>
<path d="M131.163,500.032c-0.068-0.388,0.227-0.413,0.24-0.72c2.284-0.295,2.659,1.067,4.08,0.96c2.151-0.163,2.724-2.656,5.04-2.88
	c4.111-0.399,7.133,3.253,5.76,6.96c-1.287,3.474-6.845,4.004-9.12,1.2c-1.033-1.273-0.658-3.235-1.92-4.56
	C133.929,500.626,132.037,500.837,131.163,500.032z"/>
<path d="M145.802,594.112c2.691-0.589,4.427-2.133,6.24-3.6c4.998-2.343,10.778-4.804,15.84-7.68c1.868-1.061,4.141-2.553,6-2.88
	c2.335-0.411,3.977-0.248,5.76-1.44c2.466,1.788,4.506,1.374,6.96,1.68c2.956,0.369,8.723,2.406,11.04,4.08
	c2.478,1.79,8.584,8.398,8.88,12.24c0.176,2.28-0.548,9.165-1.92,11.04c-0.946,1.293-4.036,2.448-4.32,4.56
	c-0.292,2.174,1.106,4.358,2.16,5.76c1.766,2.348,4.771,2.972,5.04,6.72c2.598,0.494,5.476,1.786,8.16,1.44
	c0.935-0.12,1.144-0.884,1.92-1.2c3.698-1.507,7.764,0.09,10.8,1.44c-0.2,2.816-4.943,2.615-6.72,2.64
	c-1.735,0.024-3.042-0.78-4.8-1.2c-4.565-1.09-9.818-1.577-13.44-2.88c-0.053,1.921,2.504,3.234,4.08,4.32
	c0.094,0.975-0.088,1.672-0.96,1.68c-1.266,0.066-1.308-1.092-1.2-2.4c-2.357-2.683-4.938-5.142-8.88-6.24
	c-0.315,0.085-0.377,0.422-0.72,0.48c-2.779,5.709,0.982,10.509,3.84,13.44c-1.852,2.094-4.58,0.186-6.72,0.48
	c-2.555,0.352-5.414,3.351-5.76,5.52c-0.356,2.233,1.254,3.276,1.2,5.76c-2.277,0.842-2.827,3.413-4.56,4.8
	c-7.96-2.382-12.129,5.359-19.68,3.36c-1.531,1.269-4.025,1.575-6,2.4c1.801,1.166,2.073,5.253-1.68,4.56
	c-1.192-0.843-1.192-3.237,0-4.08c-1.728-0.434-2.739-2.588-4.8-1.92c-1.589-2.571-3.693-4.627-3.36-9.12
	c-3.917-0.897-3.982,3.749-6.48,3.6c-1.14-0.068-1.861-1.524-1.92-2.16c-0.228-2.445,3.165-4.636,2.88-7.2
	c2.286-2.692,6.43-5.211,7.68-9.12c0.33-1.031,0.059-2.201,0.24-3.36c0.247-1.583,1.386-2.903,1.68-4.56
	c0.392-2.21-0.096-4.553,0.48-6.96c-4.246-1.443-8.75-2.553-12.24-5.04c-1.256-0.896-3.039-2.091-3.36-2.88
	c-1.029-2.532,1.488-7.524,3.12-9.6C142.233,598.111,145.929,596.604,145.802,594.112z M197.882,620.752
	c-0.002-0.877-0.474-1.286-0.96-1.68C196.905,619.97,197.308,620.447,197.882,620.752z M202.203,622.672
	c1.016-2.266-1.659-4.431-4.08-4.8C198.144,619.854,200.198,621.876,202.203,622.672z"/>
<path d="M140.043,434.992c0.499,0.55,1.24,0.999,0.72,1.92C138.765,438.346,137.101,434.59,140.043,434.992z"/>
<path d="M140.763,657.953c2.725,1.754,7.693,1.266,7.68,5.76c-0.346,0.134-0.585,0.375-0.72,0.72c-2.311-0.36-3.568,0.073-4.8-1.44
	C141.886,661.72,140.578,659.038,140.763,657.953z"/>
<path d="M144.363,442.433c2.036,0.261,4.01-0.361,4.8,1.44c-0.775,1.599-1.589,3.542-3.36,3.6
	C143.385,447.552,141.669,443.868,144.363,442.433z"/>
<path d="M144.123,697.072c-0.168-0.831,0.841-0.861,1.2-0.48C145.491,697.423,144.481,697.453,144.123,697.072z"/>
<path d="M146.763,630.832c0.502,0.531,0.188,1.598-0.24,1.92C144.409,633.107,144.961,630.42,146.763,630.832z"/>
<path d="M146.043,454.672c-0.83-5.07,6.813-5.478,8.16-1.2C155.995,459.168,146.992,460.471,146.043,454.672z"/>
<path d="M148.922,687.472c0.029-0.61,0.349-0.931,0.96-0.96C150.846,687.053,149.739,688.16,148.922,687.472z"/>
<path d="M149.163,200.993c0.022-1.42-0.3-3.182,1.44-2.881C150.488,198.569,150.023,200.505,149.163,200.993z"/>
<path d="M151.563,696.833c0.557-0.077,0.921,0.039,1.2,0.24c-0.137,0.663-0.254,1.346-1.2,1.2
	C151.235,697.965,151.235,697.139,151.563,696.833z"/>
<path d="M152.043,675.712c-0.074-0.954,0.461-1.299,1.44-1.2C154.324,675.666,152.852,676.734,152.043,675.712z"/>
<path d="M155.403,252.833c0-0.16,0-0.32,0-0.48c0.204,0.045,0.227-0.094,0.24-0.24c0.16,0,0.32,0,0.48,0
	c-0.044,0.205,0.093,0.227,0.24,0.24c0,0.16,0,0.32,0,0.48c-0.204-0.045-0.226,0.094-0.24,0.24c-0.16,0-0.32,0-0.48,0
	C155.687,252.868,155.549,252.847,155.403,252.833z"/>
<path d="M157.322,505.793c0.512-0.496,1.628,0.44,1.68,1.2C158.083,506.952,157.95,506.125,157.322,505.793z"/>
<path d="M165.483,497.152c0.815-1.906-0.737-3.385-0.48-5.52c1.28,1.201,0.739,4.221,2.16,5.28c2.026,0.134,3.759,0.561,4.56,1.92
	c1.838-1.042,3.053-2.708,5.52-3.12c0.79,0.277,2.526,1.53,3.12,0.48c0.495,0.705,0.274,2.126,0.96,2.64
	c2.195-0.006,3.322-2.601,5.76-3.12c4.391-0.935,9.85,1.609,11.76-2.16c4.503-3.426,9.941,1.083,14.64-0.48
	c1.741-0.579,2.542-2.643,4.32-3.12c2.551-0.685,4.889,0.383,6.48,1.2c3.274-0.578,5.321-1.301,8.64-2.16
	c3.068-0.794,5.061-2.857,7.92-2.64c3.125,0.238,7.07,4.365,10.32,0.48c-0.103-0.457-0.517-0.603-0.48-1.2
	c1.82-2.58,4.436-4.364,8.16-5.04c1.133,1.528,2.021,4.511,5.04,3.36c0.254-3.214-2.122-3.799-2.88-6
	c1.078-0.434,1.771,1.369,2.64,1.92c3.855-1.956,8.973-1.012,12,1.44c0.45,0.457,0.026,0.603,0,1.2
	c0.906,0.107,1.126-0.473,1.68-0.72c-0.081-1.279-1.162-1.558-1.44-2.64c0.766-0.206,0.742,0.378,1.2,0.48
	c2.015-1.781,5.886-1.351,6.96,0.96c0.337,2.257-0.642,3.199-0.96,4.8c-0.815,0.097-4.017-0.259-5.04,0.96
	c-0.469-0.627,0.978-2.202-0.96-2.16c-1.77,3.929-4.71,7.358-9.84,7.2c-0.865,0.094-0.061,1.859-1.44,1.44
	c2.187-4.383-3.494-6.209-3.6-0.72c-2.675,2.653-9.71,1.529-11.04-1.44c-4.645,0.238-6.647,5.331-11.52,5.76
	c-0.947,0.083-1.696-0.22-2.64-0.24c-2.291-0.049-5.093,0.744-7.68,0.96c-1.145,0.096-2.146-0.257-3.12,0
	c-1.245,0.329-2.122,1.681-3.36,2.16c-1.469,0.569-3.955,0.82-5.04,0.72c-0.592-0.055-0.845-0.576-1.44-0.72
	c-3.857-0.932-7.396,1.397-10.32,3.12c-6.544-0.592-12.838-1.151-18.24,0.96c-2.147-0.836-3.951-1.181-5.76-1.92
	c-0.862,0.178-0.54,1.541-0.96,2.16c-1.648,0.192-2.526,1.154-4.32,1.2c0.577,0.782,0.518,2.202,0.48,3.6
	c-3.24,4.772-9.098-3.444-3.12-4.56c-0.185-0.855-1.176-0.904-1.68-1.44c-1.003,1.396-2.622,2.177-4.56,2.64
	c-0.57,1.03,0.112,3.312-0.48,4.32c-1.009-0.671,0.325-2.871-0.48-4.08C159.059,508.328,156.933,495.81,165.483,497.152z"/>
<path d="M162.843,664.913c1.067-0.107,1.749,0.17,2.4,0.48c0.762-1.14,1.589-2.039,3.36-1.68c4.635,0.938-0.058,8.571-3.12,3.84
	c-0.802,0.158-1.174,0.747-1.92,0.96C161.35,668.291,160.89,665.745,162.843,664.913z"/>
<path d="M162.843,484.672c0.818-0.018,0.711,0.889,0.72,1.68C163.005,486.11,162.789,485.526,162.843,484.672z"/>
<path d="M163.563,487.552c0.825-0.376,1.139,1.607,0.24,1.44C163.808,488.427,163.389,488.286,163.563,487.552z"/>
<path d="M164.282,489.472c0.577-0.076,1.283,1.665,0.24,1.68C164.192,490.843,164.285,490.11,164.282,489.472z"/>
<path d="M169.083,700.192c-3.994,1.857-5.389-3.464-2.4-4.08C168.615,695.714,170.511,697.825,169.083,700.192z"/>
<path d="M171.242,672.833c0.279,0.039,0.427-0.053,0.48-0.24C176.638,673.274,169.881,677.655,171.242,672.833z"/>
<path d="M176.763,537.472c2.185,1.015,4.331,2.069,5.52,4.08C180.062,541.511,178.012,539.279,176.763,537.472z"/>
<path d="M182.763,371.153c-6.479,1.076-5.582-5.975-1.44-5.762C183.87,365.524,185.767,369.612,182.763,371.153z"/>
<path d="M182.282,694.913c-1.301-1.199-1.69-3.785,0.48-3.84c1.516-0.038,1.121,1.084,1.92,2.4c0.534,0.881,1.773,1.719,1.68,2.64
	C186.148,698.218,181.917,699.117,182.282,694.913z"/>
<path d="M183.483,378.353c2.507,0.373,3.39,2.369,4.56,4.08c0.744,0.936,2.173,1.186,2.16,2.879
	c-2.039,0.764-2.749-1.408-4.08-2.879c-1.324-1.463-2.06-1.795-2.88-3.359C183.175,378.685,183.469,378.659,183.483,378.353z"/>
<path d="M187.563,524.512c0.918,0.843,0.956,2.808-0.24,3.36C183.777,528.494,183.604,523.52,187.563,524.512z"/>
<path d="M186.363,354.353c0.099-0.65,1.142-0.99,1.68-0.48C188.268,354.849,186.743,354.704,186.363,354.353z"/>
<path d="M196.922,125.392c0.629,0.703,1.795-0.625,1.92,0.481c0.808-0.217,0.028-0.537,0.48-0.959
	c0.244,0.156,0.249,0.551,0.72,0.479c1.197-0.475,0.666-1.51,0.72-2.16c1.372,0.308,2.038,0.51,3.36,1.201
	c1.012-0.379-0.524-0.859,0.48-1.439c1.915-0.408,2.135,1.094,3.6,0.478c0.139,0.779-0.164,1.117-0.24,1.682
	c2.314,1.988,2.586,3.037,1.68,5.52c-1.792,4.908,1.939,8.5,1.2,13.439c-0.589,3.934-5.811,8.125-11.52,7.44
	c-5.867-0.703-12.673-8.734-9.12-16.32c0.568-1.213,2.099-2.229,2.88-3.6c0.893-1.566,1.035-3.564,2.88-3.84
	C195.799,126.509,196.833,126.423,196.922,125.392z"/>
<path d="M195.483,542.752c0.754,0.298,1.574,0.792,0.72,1.44C195.396,544.25,194.963,543.301,195.483,542.752z"/>
<path d="M196.203,347.392c2.601-0.514,4.039,1.121,3.12,3.361c-0.747,0.293-1.521,0.559-2.64,0.479
	C195.554,350.388,195.187,348.607,196.203,347.392z"/>
<path d="M196.443,546.112c1.063,0.377,2.084,0.796,2.4,1.92C197.845,548.459,196.81,547.092,196.443,546.112z"/>
<path d="M199.083,701.152c1.087,0.192,1.748,0.812,1.68,2.16C199.353,705.436,196.702,702.078,199.083,701.152z"/>
<path d="M199.802,552.112c2.799,2.081,7.328,2.433,8.4,6.24c-4.27,0.579-5.372-4.059-8.4-5.52
	C199.802,552.592,199.802,552.353,199.802,552.112z"/>
<path d="M199.802,524.512c0.175-0.488,0.722-0.98,1.2-0.48C201.037,524.997,200.387,524.668,199.802,524.512z"/>
<path d="M205.802,344.753c0.886-0.588,2.478-0.178,2.64,0.719c-0.088,0.713-0.416,1.185-0.96,1.441
	C206.19,346.925,205.684,346.151,205.802,344.753z"/>
<path d="M208.203,650.512c0.176,0.224,0.436,0.364,0.72,0.48C208.858,655.307,203.785,650.769,208.203,650.512z"/>
<path d="M211.802,363.472c1.781,0.803,2.99,3.857,1.2,5.521C207.258,370.495,205.335,362.536,211.802,363.472z"/>
<path d="M212.523,706.192c1.187,0.573,2.765,0.755,2.4,2.88c-0.61,0.75-1.915,0.804-3.36,0.72c-0.333-0.307-0.147-1.133-0.48-1.44
	c-0.56,0-1.12,0-1.68,0C206.133,706.038,211.988,701.932,212.523,706.192z"/>
<path d="M211.083,637.313c-0.518-0.362-0.877-0.883-1.2-1.44c-0.237-0.958,0.717-0.723,0.48-1.68c-3.102-5.933,6.926-6.029,6.96-1.2
	C217.345,636.242,212.991,635.502,211.083,637.313z"/>
<path d="M215.403,279.952c-0.206-0.908,1.074-0.85,1.44-0.48C217.048,280.38,215.768,280.321,215.403,279.952z"/>
<path d="M217.083,375.232c3.258-0.502,5.095,2.568,7.44,4.32c1.16,0.869,2.677,0.863,2.88,2.4c-0.233,0.006-0.186,0.295-0.24,0.48
	c-1.501,0.111-2.857-1.143-4.32-1.92c-2.243-1.193-4.485-2.455-6-4.56C216.775,375.565,217.07,375.54,217.083,375.232z"/>
<path d="M220.683,644.272c3.271-0.265,5.86,3.015,4.08,5.52C221.527,649.957,218.035,647.01,220.683,644.272z"/>
<path d="M221.163,340.673c4.339-0.9,3.099,5.105-0.48,3.359C219.734,342.827,220.251,341.716,221.163,340.673z"/>
<path d="M224.762,279.472c-5.72-9.641,10.496-11.938,12.24-19.44c0.788,2.969,2.531,5.529,4.8,7.68
	c1.092,1.035,2.815,1.725,3.84,2.881c1.033,1.162,2.427,4.146,2.88,6.48c0.131,0.674-0.172,1.432,0,2.158
	c0.829,3.51,3.345,5.42,3.6,10.08c0.498,9.111-6.801,17.916-18.48,16.561c-9.311-1.08-15.434-10.289-12.24-21.84
	C222.623,282.612,223.51,280.86,224.762,279.472z"/>
<path d="M224.282,575.632c4.214,2.277,11.862,2.363,12,7.92c-6.237,0.86-8.002-4.785-12.24-6.72
	C223.966,576.276,224.081,575.911,224.282,575.632z"/>
<path d="M226.443,663.953c3.675-1.159,6.328,4.715,4.32,6.96C227.784,670.205,224.643,667.225,226.443,663.953z"/>
<path d="M231.963,701.393c0.437-0.763,1.416-0.984,2.16-1.44c-0.257-1.272-0.36-2.421,0.48-3.12c5.794,0.508,3.003,7.708,3.12,12
	C233.334,708.821,232.247,705.508,231.963,701.393z"/>
<path d="M237.242,667.072c-1.224-3.597,7.741-4.768,8.4-2.16C246.353,667.725,238.412,670.51,237.242,667.072z"/>
<path d="M246.123,616.433c1.083,0.117,1.969,0.43,1.92,1.68C247.154,618.748,245.248,617.56,246.123,616.433z"/>
<path d="M250.683,392.032c0.956-1.488,3.7-3.328,5.76-2.16C255.818,391.751,252.407,392.046,250.683,392.032z"/>
<path d="M255.003,706.672c-0.19-0.83,0.267-1.013,0.48-1.44c0.431-0.03,0.506,0.294,0.96,0.24c0.121,1.319,0.755,2.125,1.2,3.12
	C255.836,708.879,256.655,706.54,255.003,706.672z"/>
<path d="M264.603,212.032c0.082-0.744-0.556-1.146,0-1.68c1.218-0.367,1.985,0.586,3.84,0.24c-0.178,0.979,0.773,0.826,0.48,1.92
	c4.124,1.576,4.572,7.641,0.72,9.84c-2.068,0.602-3.542-1.791-6.24-1.439c-0.714,0.092-1.169,0.822-1.92,0.959
	c-3.892,0.715-5.187-3.398-3.12-6.24C260.786,214.776,262.102,212.812,264.603,212.032z"/>
<path d="M258.123,615.472c2.908-3.689,5.766,2.565,2.16,2.88C258.912,618.472,257.917,617.454,258.123,615.472z"/>
<path d="M258.843,210.112c-0.262-2.65,2.677-3.148,2.64-4.801c0.802,0.238,1.171,0.91,1.68,1.441
	c-0.083,1.643,0.051,3.006,0.72,3.84c-0.11,1.33-1.986,0.893-2.88,1.439C260.521,211.153,260.026,210.29,258.843,210.112z"/>
<path d="M265.563,284.513c-0.831-4.1,2.107-7.26,6-7.201c3.856,0.059,5.936,3.371,6,5.762
	C277.759,290.462,266.969,291.454,265.563,284.513z"/>
<path d="M266.282,584.032c2.956-1.428,6.99-0.432,7.68,2.4c-0.233,0.006-0.186,0.294-0.24,0.48c-1.011,0.712-2.169-0.132-2.64-0.72
	C269.125,587.922,266.954,585.748,266.282,584.032z"/>
<path d="M287.163,249.232c1.127,1.914,4.58,1.502,6,3.121c-0.145,0.949,0.938,1.391,0.24,2.16c2.229,0.592,3.536,3.941,5.76,4.799
	c3.731,1.44,8.04,0.527,12,1.92c1.137-0.51,3.026-1.389,4.32-0.959c5.459-4.381,14.276-5.404,20.64-8.881
	c0.716,0.006,0.309,1.133,0.721,1.441c1.04,0,2.08,0,3.12,0c-0.397,1.17-0.803,2.992,0.239,3.84c-1.559,4.314-0.49,7.297-1.68,11.52
	c0.757,1.082,1.887,1.793,3.12,2.4c0.43,2.75-0.827,3.812-1.44,5.52c-4.485,0.16-6.679-0.039-10.56,1.199
	c-0.652,3.828,1.122,7.994,0.72,12c-0.164,1.635-1.326,2.895-1.68,4.32c-0.382,1.539,0.061,3.172-0.72,4.32
	c-0.881,1.295-2.463,0.984-3.36,2.4c-0.04,0.68-0.44,1-0.48,1.68c-4.023,2.516-9.912,5.846-16.56,5.041
	c-2.306-0.281-4.449-2.006-6.96-1.682c-1.206-2.145-4.549-2.998-6.48-5.279c-0.551-0.65-0.804-1.918-1.44-2.881
	c-1.537-2.326-2.447-3.664-2.88-7.44c-0.428-3.734-0.203-7.721,1.2-11.039c-2.226-1.312-5.416-0.32-7.68,0.24
	c-2.196-1.223-4.406,0.305-6.48-0.24c-2.085-0.549-1.796-3.404-4.08-3.84c-1.593-3.643-0.425-7.065,1.92-9.602
	c-0.107-1.459,0.447-2.164,0-3.359c2.441-3.029,4.555-7.248,7.2-10.08C283,250.677,285.762,250.937,287.163,249.232z"/>
<path d="M273.963,352.673c2.66-3.385,9.6-1.842,8.64,3.84C279.954,358.878,273.309,357.784,273.963,352.673z"/>
<path d="M276.363,451.072c0.234,0.246,0.475,0.486,0.72,0.72c0.096,0.976-1.022,0.738-1.2,1.44
	C274.783,452.81,275.139,451.083,276.363,451.072z"/>
<path d="M275.643,422.992c0.967,0.313,1.6,0.96,1.68,2.16C276.231,425.044,275.058,424.008,275.643,422.992z"/>
<path d="M275.882,438.112c0.085-0.315,0.423-0.377,0.48-0.72c0.597-0.037,0.743,0.377,1.2,0.48c-0.003,0.637,0.091,1.371-0.24,1.68
	C276.671,439.244,276.632,438.323,275.882,438.112z"/>
<path d="M277.083,585.232c0.666-1.064,2.634,0.074,2.4,1.44C277.966,586.909,277.662,585.934,277.083,585.232z"/>
<path d="M279.242,432.832c0.029-0.611,0.35-0.931,0.96-0.96c0.075,0.965,1.129,0.95,0.96,2.16
	C280.286,433.869,279.992,433.123,279.242,432.832z"/>
<path d="M283.322,437.632c0.887,0.233,1.566,0.674,1.44,1.92C283.849,439.346,283.379,438.696,283.322,437.632z"/>
<path d="M283.322,383.632c0.494-1.139,1.741,0.064,1.68,0.961c1.446,1.834,3.042,3.518,3.84,6
	C286.512,388.763,285.306,385.808,283.322,383.632z"/>
<path d="M285.963,447.712c0.142-0.738,1.185-0.575,1.68-0.96c0,0.48,0,0.96,0,1.44C286.767,448.348,286.364,448.031,285.963,447.712
	z"/>
<path d="M287.163,584.272c2.056-0.056,3.14,0.859,3.36,2.64C288.541,587.936,286.78,585.613,287.163,584.272z"/>
<path d="M293.163,480.833c-0.712,0.408-1.63,0.61-2.88,0.48C285.189,477.96,295.321,474.31,293.163,480.833z"/>
<path d="M292.922,582.353c3.532,0.148,5.228,2.132,6,5.04c-0.233,0.006-0.186,0.293-0.24,0.48
	C295.57,589.182,291.471,585.64,292.922,582.353z"/>
<path d="M315.003,467.632c1.931,0.252,2.911-0.448,4.079-0.96c0.214-2.67,1.573-3.572,3.12-3.6c5.111-0.092,3.083,8.09-1.68,5.52
	c-2.315,1.205-2.762,4.279-3.6,6.96c3.622-0.637,7.049,0.806,6.96,4.32c-0.07,2.775-2.641,4.719-6.48,3.6
	c-0.7-0.739-1.321-1.558-2.16-2.16c-0.521,0.919-0.745,2.135-0.96,3.36c-3.655,3.636-10.02-0.722-13.92,0.72
	c0.908-1.413,2.223-2.417,2.64-4.32c-0.601-0.999-2.954-0.246-4.32-0.48c-0.135-0.346-0.375-0.585-0.72-0.72
	c0.175-3.265,0.423-6.458,1.2-9.12c3.236-3.641,8.048-6.105,14.4-4.8C314.282,466.272,314.282,467.313,315.003,467.632z"/>
<path d="M309.242,687.953c1.931-4.484,9.849-2.533,9.84,1.92C319.072,695.122,307.759,695.509,309.242,687.953z"/>
<path d="M314.282,585.232c3.177-2.227,7.688,1.259,7.44,5.52c-2.616,1.955-5.031-2.184-6.72-0.48
	C312.418,588.989,314.664,587.559,314.282,585.232z"/>
<path d="M314.282,579.712C315.257,578.347,315.886,581.106,314.282,579.712L314.282,579.712z"/>
<path d="M315.003,670.672c0.023-0.611,0.894-0.567,1.199-0.24C316.178,671.043,315.309,671,315.003,670.672z"/>
<path d="M315.963,491.393c-0.338-2.01,0.918-3.084,2.159-3.36c4.918-1.092,6.081,7.062,0.24,6
	C317.536,493.882,316.243,493.065,315.963,491.393z"/>
<path d="M318.363,499.552c0.411-0.952,2.579,0.229,2.641,1.2C319.489,500.985,319.3,499.895,318.363,499.552z"/>
<path d="M319.322,434.752c1.259,0.901,2.687,1.634,2.88,3.6C321.068,437.327,319.992,436.243,319.322,434.752z"/>
<path d="M320.763,504.112c1.881-3.09,7.064-1.909,6.96,1.68C327.598,510.097,319.381,510.883,320.763,504.112z"/>
<path d="M320.763,446.512c0.573-1.186,1.854-1.665,3.12-2.16c0.984,0.855,1.68,2,3.12,2.4c1.42-1.275-0.711-2.685-0.961-3.84
	c1.12,0.88,2.66,1.34,2.641,3.36c3.256-1.211,4.48,1.563,6.96,0.96c2.127,1.393,4.242,2.798,3.84,6.72
	c-2.347,3.441-6.435,4.147-12,3.6c-2.741-1.303-4.188-6.498-2.4-10.08c-0.104-1.254-1.96-0.759-2.399-1.68
	C321.929,445.901,321.727,447.356,320.763,446.512z"/>
<path d="M323.643,439.793c1.696-0.44,0.702,2.349,2.16,1.44c0.098,0.578-0.439,0.522-0.24,1.2
	C324.282,442.193,323.366,441.588,323.643,439.793z"/>
<path d="M326.523,587.152c2.927,0.514,4.977,1.904,5.76,4.56c0.982-0.035,3.546,0.851,2.88,2.4c-0.69,0.328-2.002-0.468-2.159-1.44
	c-0.724,0.156-0.818,0.942-1.44,1.2C328.331,593.412,324.874,590.196,326.523,587.152z"/>
<path d="M327.723,638.032c0.924-0.871,3.99,0.131,4.56,1.2C330.377,639.217,329.473,638.202,327.723,638.032z"/>
<path d="M328.923,518.752c-0.793-2.274,0.332-5.774,2.159-6c1.782-0.22,4.773,2.878,4.561,5.04
	C335.399,520.266,330.312,522.736,328.923,518.752z"/>
<path d="M334.202,315.712c0.506,0.934,0.125,1.912-0.48,2.4C331.181,318.288,331.999,314.485,334.202,315.712z"/>
<path d="M338.763,297.232c-6.437-0.084-7.279-10.897-0.721-11.52c2.022-3.68,5.705-6.643,10.801-6.959
	c0.941-0.059,1.846,0.473,2.88,0.479c2.444,0.017,4.9-0.803,6.96-0.479c5.238,0.824,9.353,4.832,11.76,9.359
	c4.031,7.584-0.709,17.699-6.479,20.881c-1.249,0.688-3.146,0.838-5.04,1.199c-1.879,0.359-4.113,1.15-5.761,0.961
	c-1.998-0.23-7.146-2.746-8.64-4.08C341.73,304.575,340.254,300.669,338.763,297.232z"/>
<path d="M336.363,592.913c1.431,0.447,3.726,1.183,2.88,3.12C337.555,595.842,336.01,594.357,336.363,592.913z"/>
<path d="M348.122,531.953c0.831,0.289,1.718,0.523,2.881,0.48c1.482,1.157,2.956,2.323,3.84,4.08c1.081,1.079,2.839,1.48,2.64,3.84
	c1.729,1.151,4.606,1.153,4.56,4.08c5.998,0.956,12.292,6.276,8.4,12.72c1.132,1.247,2.792,0.614,4.08,1.2
	c2.623,1.192,3.312,3.952,3.84,7.2c-0.858,4.096-5.013,7.647-9.84,5.76c-2.338-0.915-3.17-4.058-4.56-6
	c0.247-1.833,1.381-2.778,1.68-4.56c-5.743-0.709-9.377-5.912-8.88-11.28c-1.377-1.023-2.632-2.169-3.12-4.08
	c-2.917-0.923-4.617-3.063-7.44-4.08c-0.486-1.753-1.314-3.166-1.199-5.52c-1.905-0.709-2.497-2.308-4.08-3.36
	c-0.949-0.631-2.066-0.383-2.641-0.96c-5.658-5.689,7.553-11.785,7.681-2.88C346.812,529.583,348.346,529.89,348.122,531.953z"/>
<path d="M350.523,449.393c2.115-3.162,5.569-6.274,10.32-4.8c-0.588-2.122-0.692-5.623,1.199-7.44
	c-2.865-9.739,10.463-13.184,13.44-6.24c1.117,2.604-0.064,6.182-1.68,8.16c2.311,5.158-0.133,11.597-6.721,10.8
	c2.28,9.632-11.207,14.558-16.079,6.24c0.224-1.665-0.846-2.035-0.721-3.6c-1.778,0.758-2.033,2.344-3.84,2.64
	c-4.439,0.728-8.863-4.881-6.96-9.6c0.378-0.937,1.982-1.305,2.16-2.64C345.671,441.949,350.146,444.551,350.523,449.393z"/>
<path d="M340.923,569.632c0.271-1.017,2.178,0.124,2.159,0.96C341.965,570.669,341.747,569.848,340.923,569.632z"/>
<path d="M343.803,438.353c0.954-0.074,1.299,0.461,1.2,1.44c-0.214,0.106-0.43,0.211-0.48,0.48
	C343.068,440.603,342.572,438.678,343.803,438.353z"/>
<path d="M346.202,598.192c0.855-0.055,1.255,0.345,1.2,1.2C346.548,599.447,346.148,599.047,346.202,598.192z"/>
<path d="M427.082,365.153c-3.658,2.037-9.59-2.971-13.199-5.521c-1.766-1.248-3.456-2.613-5.04-3.84
	c-1.769-1.367-3.722-2.357-5.28-3.6c-2.869-2.287-5.371-5.404-8.16-7.92c-5.359-4.834-10.384-11.422-16.08-15.6
	c-3.087-2.266-6.798-3-10.56-5.281c-1.997-1.209-4.249-2.902-6.48-4.318c-1.984-1.262-3.483-2.822-5.52-4.08c0-0.24,0-0.48,0-0.721
	c4.251-2.471,9.736-0.072,14.399,0.48c10.953,5.209,22.15,12.299,30.96,20.639c3.51,3.322,6.991,6.643,10.561,10.08
	c3.81,3.672,6.637,6.141,10.32,10.56C425.246,358.726,428.103,360.765,427.082,365.153z"/>
<path d="M357.483,376.433c0.307-0.328,1.133-0.328,1.44,0c0.076,0.557-0.039,0.922-0.24,1.199
	C357.827,377.687,357.428,377.288,357.483,376.433z"/>
<path d="M361.082,422.752c-1.451-6.7,8.224-6.262,7.921-0.72C368.769,426.305,362.094,427.419,361.082,422.752z"/>
<path d="M362.763,688.672c0.085-1.915,0.008-3.992,1.68-4.32C364.526,685.527,364.087,688.119,362.763,688.672z"/>
<path d="M364.202,607.313c2.15-0.461,4.191,1.024,4.08,3.6C365.97,611.592,364.075,609.864,364.202,607.313z"/>
<path d="M373.563,595.072c-2.242-1.894-4.32-4.059-5.04-6.96c-2.039-8.215,4.621-14.502,11.04-14.4
	c6.055,0.096,11.348,5.676,10.32,12.96C388.922,593.478,382.192,598.04,373.563,595.072z"/>
<path d="M371.403,384.593c-0.042-1.172,1.697-1.539,2.64-0.961C373.924,384.644,372.233,385.06,371.403,384.593z"/>
<path d="M373.803,257.872c0.166-1.137,2.698-2.006,3.12-0.719C376.64,258.569,375.068,257.882,373.803,257.872z"/>
<path d="M376.443,411.472c-1.454-5.547,6.895-5.529,6.72-0.719C383.038,414.183,377.407,415.153,376.443,411.472z"/>
<path d="M379.803,617.632c2.327-0.85,3.996,0.937,4.319,2.88C382.192,621.764,380.23,619.429,379.803,617.632z"/>
<path d="M381.723,434.512c-1.141-3.175,3.28-3.397,3.84-1.44C386.174,435.21,382.767,437.42,381.723,434.512z"/>
<path d="M405.483,463.793c2.61-3.79,6.067-6.733,12.481-6.72c-3.078-1.722-4.091-5.509-5.761-8.64
	c-0.023-0.744,0.109-1.331,0.48-1.68c-0.101-1.099-1.252-1.148-1.68-1.92c0.379-1.221,2.044-1.156,1.92-2.88
	c2.53-0.03,3.042-2.078,5.279-2.4c2.776-2.059-0.308-6.605,0.96-8.88c-0.378-1.909-1.951-4.476-0.72-6.48
	c-0.234-0.646-1.169-0.59-1.44-1.2c0.146-2.787-2.184-3.097-2.641-5.28c1.006-0.575,1.682,0.958,2.641,1.2
	c1.408-0.993,3.102-1.726,5.039-0.96c2.816-1.905,3.513-5.928,4.801-9.36c2.998-0.715,4.973-4.631,3.84-7.92
	c0.357-1.082,1.826-1.055,2.16-2.16c-1.287-4.152-7.744-3.137-8.4-7.92c5.157-0.815,4.291,5.596,9.36,4.08
	c0.121-0.914-0.089-2.342,0.72-3.121c-0.32-0.799-1.209-1.029-1.44-1.92c-0.273-1.059,0.315-1.764,0.24-2.4
	c-0.373-3.139-3.786-2.668-5.28-4.799c4.122,0.047,7.242,3.15,11.761,3.6c-0.118-1.562-2.589-0.771-2.4-2.641
	c1.342-1.178,3.532,0.08,4.32,0.961c3.681-2.41,8.976-1.369,11.52,1.439c0.444-0.035,0.147-0.812,0.48-0.959
	c2.342,1.125,4.659-0.393,6-1.68c-0.678-1.484-1.912-2.41-2.4-4.08c-1.147,0.451-1.615,1.584-2.64,2.158
	c-2.919-0.514-7.608,1.719-6.24-1.68c1.225-0.344,1.025,0.734,1.68,0.961c0.756-1.861,4.098-1.508,4.32-3.359
	c0.268-2.236-7.596-6.174-7.68-8.641c-2.542-2.178-4.156-5.283-6.721-7.439c0.1,1.33,4.613,5.592,0.961,6.719
	c-5.335,1.647-5.975-5.012-6.481-8.879c-1.955-2.269-4.434-2.775-5.76-5.041c-0.415-0.709-0.353-1.699-0.721-2.4
	c-0.311-0.59-1.049-0.846-1.44-1.44c-0.453-0.689-0.479-1.697-0.96-2.4c-3.716-5.418-12.054-5.773-16.561-10.08
	c-1.177-1.125-1.868-2.379-1.68-4.799c2.271-2.865,5.429-0.803,7.44,0.719c4.866,3.684,9.948,10.242,16.8,11.281
	c0.382-2.295,4.006-2.797,5.28-0.961c4.999-3.965,12.068,3.273,7.92,8.4c2.769,2.43,5.902,4.498,9.12,6.48
	c0.815-1.387-1.418-1.557-0.96-3.361c0.232-0.006,0.186-0.293,0.239-0.479c1.074-0.572,2.197-0.035,2.88,0.479
	c0.841,6.84,6.108,9.254,10.801,12.24c4.197-0.885,8.765-1.34,12.479,0.24c0.425,0.695,0.249,1.992,1.68,1.68
	c0.348-0.834-1.502-1.531-1.68-2.639c0.791-0.648,1.836-1.045,2.64-1.68c-0.189-1.389,0.669-1.732,0.48-3.121
	c2.768-1.473,4.213-4.267,5.76-6.959c3.066-0.268,3.004,2.596,4.32,4.08c-0.621,1.699-1.958,2.682-2.88,4.078
	c0.277-2.129,2.706-4.48,0.72-7.199c-3.058,0.338-4.214,3.233-4.08,6c0.112,2.33,2.41,5.035,0.481,6.721
	c-0.233-2.648-0.303-5.459-1.681-6.961c-3.743-0.736-1.268,5.869-4.08,5.281c2.292,1.227,1.749,5.291,3.36,7.199
	c-1.252,2.588-2.17,5.51-2.88,8.641c3.034,5.088,11.121,7.52,17.76,9.84c5.753,2.01,12.435,4.848,18,7.44
	c2.775-2.248,6.974-0.098,8.4,1.92c2.706-0.467,3.602,0.879,6,0.721c0.322,1.357,0.791,2.568,2.16,2.879
	c1.364-0.053,1.369-1.447,2.64-1.68c2.421-0.441,5.095,1.85,5.76,3.84c4.392,1.938,9.508-0.197,10.8-3.6
	c1.238-0.279,1.413,0.508,1.921,0.959c1.205-0.186,2.194-0.408,3.359-0.24c8.443,1.227,9.668,14.491,0.72,14.881
	c-2.723,0.119-4.477-1.336-6.72-2.64c-1.506-0.087-2.37,0.504-3.359-0.24c0.896-5.216-3.841-4.8-6.961-6
	c-0.369,1.956-1.482,2.812-2.88,2.64c-1.061-0.129-0.869-1.123-2.159-2.16c-1.305-1.047-3.252-1.875-3.841-3.359
	c-3.163,0.668-6.438,0.059-7.92-1.68c-4.283,0.73-7.098-0.926-8.64-3.6c-8.175-1.621-15.676-4.615-22.32-8.16
	c-6.519-3.479-10.707-6.734-17.76-6.721c-1.629,0.004-3.082,0.752-4.559,0.721c-2.087-0.045-5.354-1.346-8.16-1.201
	c-4.441,0.23-6.005,4.586-8.4,7.682c-0.5,0.729,0.366,1.434-0.24,2.158c-1.169,0.211-1.592-0.328-2.399-0.479
	c-2.075,0.565-1.325,3.955-1.92,6c-1.369,0.328-1.451-0.631-2.641-0.48c-2.291,3.148-5.14,5.74-7.92,8.4
	c-0.757,4.362-2.31,7.928-4.56,10.799c2.627,5.66,0.269,13.131-5.04,14.4c-3.041,2.558-4.335,7.621-0.96,10.56
	c-0.977,3.664-1.919,7.361-5.521,8.4c-0.387,1.693-1.909,2.25-2.88,3.36c0.44,0.761,1.323,1.077,2.16,1.44
	c1.067-0.293,1.116-1.604,1.92-2.16c2.354-0.729,4.815,0.014,5.521,1.68c0.746,3.546-1.485,4.115-2.881,5.52
	c0.33,1.591,2.181,1.659,3.601,2.16c2.038,2.361,4.813,3.986,4.32,8.88c4.521-0.202,5.633,3.007,9.359,3.6
	c0.465,0.85-0.006,1.386,0,2.4c3.816,3.111,3.189,11.571,0.72,15.84c-0.432,9.323-0.441,18.401,0.721,27.12
	c2.617,2.418,4.873,3.457,4.8,7.2c-0.018,0.881-0.759,1.902-0.72,2.88c0.148,3.731,3.697,4.67,5.76,6.96
	c3.469-0.029,4.927,1.953,5.28,5.04c4.536,7.143,13.407,9.953,16.56,18.48c2.523,0.997,4.095,2.945,5.76,4.8
	c0.315,5.29-6.255,7.136-8.64,3.12c-0.202-3.011,0.452-5.025,0-7.2c-1.956-1.427-4.463-1.055-6.24-2.4
	c-0.809-0.613-1.49-2.02-2.399-2.88c-2.167-2.048-4.605-3.167-6-6c-0.641,0-1.28,0-1.92,0c-2.688-2.593-8.716-1.845-10.08-5.76
	c-0.195-1.234,0.193-1.886,0.72-2.4c-1.43-1.549-0.26-3.695-0.72-5.28c-0.576-1.981-2.563-1.958-3.601-3.6
	c-5.228,0.863-7.459-3.227-10.08-5.76c0.955-2.485,3.113-3.767,2.88-7.44c-2.248-1.714-1.589-4.93-4.08-6.48
	c0.847-2.267-0.677-3.646-1.68-4.8c1.407-2.128-0.419-5.533-1.68-7.2c0.975-2.87-1.317-4.378,0.479-6.96
	c-0.452-1.547-1.543-2.457-1.68-4.32c-2.88-0.88-2.964-4.556-5.28-6c-0.966,0.845-0.325,2.696-0.479,3.6
	c-0.827,4.819-6.186,5.923-5.28,12.48c-1.72,0.52-2.295,2.185-2.88,3.84c1.156,2.123,1.712,4.848,3.6,6.24
	c0.172,1.888,0.008,2.678,0.481,4.32c-0.903,3.256-3.254,5.066-5.04,7.44c0.34,2.7-2.099,3.032-1.68,5.04
	c0.293,1.408,3.435,2.343,4.08,4.8c0.244,0.932-0.244,1.682,0.239,3.12c-0.787,1.773-1.809,3.311-2.88,4.8
	c0.527,4.496-0.06,8.66,0.24,12.96c0.239,3.436,1.771,6.628,2.16,9.84c0.338,2.79-1.172,4.454-1.681,7.2
	c-2.477,2.082-6.609,2.51-7.439,6.24c-0.72,0-1.44,0-2.16,0c-1.148-2.532-2.724-4.79-5.28-6.96c-1.134-0.963-3.084-1.412-3.12-3.36
	c-0.018-1.049,1.236-1.753,2.16-3.6c0.427-0.852,0.387-1.953,0.721-2.64c1.809-3.72,5.011-6.23,4.8-11.76
	c-0.086-2.249-2.293-4.751-0.481-7.2c-4.267-3.177-2.386-10.749,1.681-13.2c-0.514-1.087-1.897-1.304-2.4-2.4
	c0.065-0.814-0.186-1.946,0.24-2.4c-1.693-1.187-2.705-3.056-4.32-4.32c0.566-1.258-0.632-2.029-0.72-2.88
	c-0.283-2.739,1.525-4.211,1.92-6.72c1.464-0.085,1.977-1.854,2.88-3.12c0.957-1.341,2.181-1.172,2.16-2.16
	c-0.035-1.617-2.064-1.612-3.84-2.4c0.814-3.517,2.966-6.288,2.399-10.32c-0.159-1.134-1.133-2.161-1.2-3.36
	c-0.286-5.17,3.264-8.748,7.681-10.32c-0.358-1.407-1.738-1.511-0.721-3.12c-0.632-0.769-1.415,0.021-2.159-0.72
	c-0.146-0.575-0.346-1.095-0.24-1.92c-1.614-0.306-1.857-1.983-2.64-3.12c-2.396,3.392-5.986,6.247-10.561,6.48
	c-7.869,0.4-14.38-7.996-10.8-17.04c2.653-5.516,12.308-8.317,18.24-3.84C403.15,460.046,404.713,461.522,405.483,463.793z
	 M422.763,484.672c0.733-1.027,1.967-1.553,2.399-2.88c-0.777-1.222-2.57-1.429-4.08-1.92
	C418.526,481.607,420.871,483.59,422.763,484.672z M459.003,388.673c0.493-0.58,1.845-1.016,1.199-1.68
	c-2.852-0.213-2.907,2.371-5.52,2.398c0.251,2.252-0.291,3.709-0.72,5.281C455.901,393.319,457.496,390.444,459.003,388.673z"/>
<path d="M386.282,284.272c3.719-4.344,7.472,3.809,2.88,4.32C386.964,288.837,385.898,287.282,386.282,284.272z"/>
<path d="M390.843,624.353c2.517-0.294,4.618,1.735,4.8,4.56C392.982,630.342,389.642,627.54,390.843,624.353z"/>
<path d="M407.883,388.192c-1.984-5.184,2.028-8.871,6.479-8.16c6.889,1.1,5.176,12.158-2.16,11.52
	c1.128,2.947-0.513,6.23-3.12,6.961c-0.8,0.225-2.036-0.295-2.88,0c-2.203,0.77-3.166,3.811-5.76,4.32
	c-5.656,1.109-9.053-3.842-8.4-8.16c0.523-3.459,3.961-5.838,8.16-6.24c0.903-1.053,1.16-2.123,2.4-2.16
	C404.247,386.222,405.263,389.911,407.883,388.192z"/>
<path d="M397.803,192.833c1.219-1.102,2.641-0.086,4.319-0.481c2.799-0.658,4.541-5.162,7.2-6.24c2.095-0.85,4.318-0.443,6-0.959
	c1.6-0.494,2.565-1.52,4.32-2.16c5.488,2.719,9.801,5.656,13.439,10.559c0.418,0.562,1.238,0.867,1.44,1.201
	c0.43,0.709,0.292,1.518,0.72,2.16c1.416,2.123,4.092,3.336,4.32,6.959c-0.315,1.428-1.475,2.709-1.441,4.08
	c0.035,1.391,1.529,2.857,1.681,4.08c0.218,1.766-0.42,4.733-0.96,6.24c-0.363,1.012-1.17,1.227-1.2,2.4
	c-0.146,5.603,7.686,5.658,8.399,11.039c-2.885,1.52-4.56-1.096-6.239-2.879c-1.577-1.676-3.052-5.047-4.8-5.521
	c-1.162-0.314-2.666,0.506-4.56,0.721c-0.996,0.113-2.113-0.174-2.88,0c-2.331,0.525-3.847,3.316-6.24,4.801
	c-2.374,1.471-6.505,2.537-9.6,4.08c-1.597,0.795-2.945,1.967-4.08,2.398c-0.984,0.377-2.536,0.344-3.84,0.721
	c-3.372,0.977-5.057,1.109-7.92-1.199c-1.499-3.631-2.959-5.59-2.4-11.041c0.173-1.682,1.053-3.963,1.44-6.48
	c0.686-4.457-0.544-8.859,1.199-11.76c1.109-1.844,3.918-4.52,3.36-8.16C399.217,195.659,397.236,195.038,397.803,192.833z"/>
<path d="M394.443,548.272c0.769,0.032,1.056,0.544,0.96,1.44c-0.431-0.03-0.506,0.294-0.96,0.24
	C394.1,549.632,394.1,548.593,394.443,548.272z"/>
<path d="M397.322,630.112c1.485,0.115,2.312,0.888,2.641,2.16C398.894,632.625,397.4,631.531,397.322,630.112z"/>
<path d="M397.322,300.353c1.152-0.84,3.049-0.371,2.641,1.68c-0.388,0.494-1.204,0.557-2.16,0.48
	C397.456,301.98,397.2,301.354,397.322,300.353z"/>
<path d="M399.483,272.272c0.396-0.975,2.814-1.625,3.6-0.721C402.824,273.103,400.141,272.269,399.483,272.272z"/>
<path d="M404.523,439.072c-0.545-0.255-0.092-1.508-0.24-2.16C409.603,432.53,409.066,443.261,404.523,439.072z"/>
<path d="M407.883,308.753c1.056-0.017,1.506,0.574,1.92,1.199c-0.099,0.781-0.501,1.26-0.96,1.68
	C406.8,311.96,406.393,309.341,407.883,308.753z"/>
<path d="M410.763,682.672c-1.388,0.795-3.737-0.471-3.12-1.68C409.386,680.849,410.615,681.219,410.763,682.672z"/>
<path d="M412.923,577.793c8.884-1.015,6.286,11.208-0.721,8.64C408.9,585.222,409.346,578.832,412.923,577.793z"/>
<path d="M415.563,643.313c3.216,0.405,7.55,4.099,4.559,6.96c-3.73,0.051-4.399-2.961-6-5.04c-3.09,0.384-5.239-4.406-2.64-5.28
	C413.597,639.242,414.824,641.68,415.563,643.313z"/>
<path d="M423.723,599.152c0,0.8,0,1.6,0,2.4c-3.201,3.648-4.159-1.791-7.92-1.2c-2.472-1.541-1.485-4.65,1.44-4.32
	c0.941,0.106,0.919,0.984,1.92,1.44C420.789,598.213,423.43,597.758,423.723,599.152z"/>
<path d="M417.963,327.712c-1.807-5.072,5.343-4.522,5.519-1.199C423.616,329.04,419.2,331.19,417.963,327.712z"/>
<path d="M420.122,398.032c0.175,0.654-0.477,0.483-0.479,0.961C418.022,398.978,418.966,397.034,420.122,398.032z"/>
<path d="M425.162,295.312c2.384-0.621,3.268,1.709,2.16,3.121c-0.279-0.039-0.427,0.053-0.479,0.24
	C424.751,298.905,423.736,296.519,425.162,295.312z"/>
<path d="M442.202,272.513c2.062,2.865-2.875,3.596-0.96,6.24c6.626,0.459,6.927-6.055,13.2-6.24c4.054-0.121,9.474,3.246,8.88,7.92
	c-0.695,5.469-8.407,7.705-14.88,7.92c-0.031,0.715,1.337,2.176,0,3.359c-1.444,0.244-1.755-0.645-2.4-1.199
	c-0.268-1.469,1.04-1.361,1.44-2.16c-4.812,0.477-9.367-4.152-13.44-4.32c-3.527-0.145-11.229,2.35-9.6-4.08
	c0.165-0.652,1.168-1.029,1.44-1.92c2.061-0.992,4.346-0.352,6.239-0.721c3.286-0.639,3.863-3.902,6-5.52
	C439.605,271.482,441.111,271.806,442.202,272.513z"/>
<path d="M428.042,655.313c3.177-1.581,7.007,2.005,5.28,5.28C429.907,661.429,427.734,658.996,428.042,655.313z"/>
<path d="M429.723,610.433c-0.73-3.214,1.341-4.95,3.84-4.8c4.634,0.278,4.085,7.118,0,7.44
	C431.729,613.217,430.486,611.897,429.723,610.433z"/>
<path d="M435.242,297.232c0.372-0.268,0.5-0.779,1.2-0.719c-0.673-3.939,5.033-3.078,3.84,0.719
	c-1.221,1.074-2.716,0.422-3.359,1.922C435.771,299.104,435.049,298.626,435.242,297.232z"/>
<path d="M440.042,665.152c2.95-0.15,3.923,1.678,4.56,3.84c2.688,0.032,3.686,1.753,3.84,4.32c1.828,1.532,5.262,1.458,5.76,4.32
	c3.164,0.706,6.042,2.878,5.28,6.72c-5.46,1.989-5.544-5.256-9.6-6.24c-0.355-1.564-1.088-2.752-1.681-4.08
	c-2.98,0.181-4.52-1.08-4.8-3.6C440.766,670.401,438.531,667.772,440.042,665.152z"/>
<path d="M442.683,316.192c3.479,0.609,4.941,4.484,4.56,8.16C444.366,323.253,441.304,319.968,442.683,316.192z"/>
<path d="M442.683,294.833c1.782-0.953,3.227,0.982,2.399,2.639C443.305,298.489,441.653,296.595,442.683,294.833z"/>
<path d="M444.362,200.993c4.062-0.527,6.027,3.453,4.32,6.478C444.492,208.532,440.197,203.569,444.362,200.993z"/>
<path d="M446.042,414.833c0.388-2.037,1.89-4.158,4.32-3.361C450.399,413.933,448.539,415.696,446.042,414.833z"/>
<path d="M449.162,270.833c-3.93-3.932,4.224-5.752,3.36-1.441C452.261,270.7,451.269,270.944,449.162,270.833z"/>
<path d="M451.082,297.472c1.442-0.242,1.671,0.73,2.16,1.441c0.82-0.221,0.93-1.15,1.92-1.201c5.123,0.539,0.298,7.188-1.68,2.641
	C451.837,303.884,448.941,299.89,451.082,297.472z"/>
<path d="M452.042,527.873c-1.337-5.483,6.051-5.032,5.761-0.96C457.63,529.34,453.544,530.782,452.042,527.873z"/>
<path d="M458.042,306.112c1.655-0.041,1.353,2.316-0.239,2.16C457.292,307.71,457.035,306.317,458.042,306.112z"/>
<path d="M461.403,261.472c1.95-0.145,2.81,0.41,2.88,1.682C464.487,266.827,457.897,264.442,461.403,261.472z"/>
<path d="M461.162,306.112c0.655,0.176,0.483-0.477,0.96-0.48c1.032,0.328,1.812,0.91,1.681,2.4
	C462.66,309.767,460.242,307.819,461.162,306.112z"/>
<path d="M469.803,262.192c-2.259,0.293-6.16,1.301-5.761-2.641c0.628-0.733,1.523-1.197,3.12-0.959
	C467.941,259.894,469.719,260.196,469.803,262.192z"/>
<path d="M466.443,309.712c3.568-0.922,4.304,3.422,2.16,4.08C466.526,314.431,464.694,311.577,466.443,309.712z"/>
<path d="M466.923,692.992c1.211-1.535,2.942-0.128,4.08-1.2c1.43,1.145,5.213,6.689,1.68,7.68
	C469.84,700.27,466.638,696.801,466.923,692.992z"/>
<path d="M469.322,246.353c2.886,1.5,1.834,7.201,0.72,9.84C468.003,255.067,467.589,248.163,469.322,246.353z"/>
<path d="M468.362,230.993c0.029-0.611,0.35-0.932,0.96-0.961c0.003,0.477,0.655,0.305,0.481,0.961
	C469.495,231.321,468.669,231.321,468.362,230.993z"/>
<path d="M470.042,343.792c1.131-0.002,2.201,1.037,1.681,1.92C470.909,345.396,469.437,344.761,470.042,343.792z"/>
<path d="M470.763,624.832c0.198-1.18,1.411,0.192,1.92,0.24C472.223,625.747,471.432,624.743,470.763,624.832z"/>
<path d="M475.563,321.472c2.543,0.435,5.093,3.137,2.88,5.521C473.91,329.689,470.971,322.454,475.563,321.472z"/>
<path d="M475.563,702.353c1.371,0.539,2.96,0.069,3.6,1.68C477.973,703.834,475.743,704.207,475.563,702.353z"/>
<path d="M478.443,597.472c1.577-3.116,3.875,0.028,6.48,0c4.715,2.332,3.043,9.927-1.44,10.56c-1.374,0.194-4.065-0.138-4.8-0.72
	C476.151,605.31,479.487,601.281,478.443,597.472z"/>
<path d="M479.883,589.552c-0.442-2.416,0.845-4.222,1.92-4.56c5.846-1.841,7.461,9.419,1.44,8.64
	C481.427,593.397,480.223,591.409,479.883,589.552z"/>
<path d="M482.763,581.393c-2.875,0.18-3.669-3.292-1.92-5.04C485.549,574.377,486.38,580.756,482.763,581.393z"/>
<path d="M487.803,253.552c-5.231,1.014-4.337-4.994-1.2-4.799C488.531,248.872,489.668,251.948,487.803,253.552z"/>
<path d="M507.483,522.592c6.056,2.824,12.975,4.786,16.56,10.08c2.688,0.592,4.539,2.022,5.04,4.8c0.801,0.96,2.355,1.165,3.36,1.92
	c0.197,1.564,1.953,3.024,0.72,4.56c2.432,0.29,4.684,1.049,4.32,3.6c-0.649,4.567-9.438,1.179-5.28-3.12
	c-1.69-0.709-2.867-1.933-3.84-3.36c0.198-1.639-0.174-2.706-1.68-2.64c-0.479,0.641-0.124,2.116-0.48,2.88
	c-3.983,3.42-7.383-3.1-2.64-5.04c-0.122-3.688-4.471-3.449-7.44-5.04c-0.862-0.462-1.392-1.461-2.159-1.92
	c-1.023-0.612-2.374-0.649-3.36-1.2c-1.284-0.717-2.046-1.685-3.84-2.16c-2.458,2.436-8.349,2.467-10.561-0.24
	c-6.698,2.215-13.39-5.579-10.08-9.84c1.322-1.702,5.883-2.685,8.881-1.44c1.007,0.418,1.613,1.681,2.88,1.92
	c1.017,0.192,2.346-0.343,3.359-0.24C504.862,516.481,506.844,518.539,507.483,522.592z"/>
<path d="M490.923,580.672c2.065,2.175,0.635,5.886-1.92,5.76C485.066,586.238,485.928,579.094,490.923,580.672z"/>
<path d="M490.202,343.552c1.1-1.715,4.08-1.312,4.32,0.961c0.65-0.15,0.598-1.004,1.441-0.961c1.167,0.998-0.24,2.1-0.96,2.641
	c-0.874,1.766-1.52,3.762-3.12,4.801c0.022-1.818,1.349-2.332,1.68-3.84C491.775,347.276,489.617,346.511,490.202,343.552z"/>
<path d="M495.963,251.153c-3.177,1.141-3.201-3.326-0.96-3.361C496.455,247.771,497.263,249.798,495.963,251.153z"/>
<path d="M494.282,581.152c0-0.56,0-1.12,0-1.68c2.061-1.868,4.136,1.648,1.681,2.4C495.225,581.81,494.883,581.352,494.282,581.152z
	"/>
<path d="M495.483,242.753c2.021-0.371,2.783,1.354,2.16,2.879C495.884,246.64,494.039,244.196,495.483,242.753z"/>
<path d="M498.603,230.032c0.699,1.359,0.191,2.703-0.24,4.08C497.686,232.95,496.857,230.448,498.603,230.032z"/>
<path d="M498.362,239.872c2.508-0.471,3.3,2.266,1.92,3.6C497.554,244.087,497.171,241.161,498.362,239.872z"/>
<path d="M498.603,642.353c-0.325-6.095,8.808-4.684,8.88,0.24C507.558,647.716,498.926,648.41,498.603,642.353z"/>
<path d="M498.843,249.232c1.76-0.772,0.962-2.68,2.64-3.359c1.327-0.33,0.602,1.434,0.96,2.4c0.359,0.973,1.049,1.064,0.96,1.92
	c-0.173,1.658-1.683,2.412-3.84,1.68C499.298,251.017,498.775,250.421,498.843,249.232z"/>
<path d="M500.282,400.673c0.176,0.225,0.437,0.363,0.721,0.48c0.19,0.828-0.268,1.012-0.481,1.44
	C498.614,402.96,498.876,400.669,500.282,400.673z"/>
<path d="M500.282,352.673c1.651-0.559,2.146,0.484,2.88,1.439C502.839,357.442,498.182,355.468,500.282,352.673z"/>
<path d="M500.282,282.833c-0.076-0.557,0.039-0.922,0.24-1.201C501.146,281.562,501.357,283.255,500.282,282.833z"/>
<path d="M504.122,222.593c0.741,4.832-0.766,9.041-2.159,12.959c-0.24,0-0.481,0-0.721,0c-0.875-1.994,0.094-4.408,0.48-6
	C502.333,227.038,501.534,222.825,504.122,222.593z"/>
<path d="M507.963,479.152c-5.133,0.85-7.453-2.703-6-6.96C506.819,466.486,514.078,475.223,507.963,479.152z"/>
<path d="M504.122,265.073c2.251,1.328,0.391,5.02-1.439,5.76C502.102,268.774,503.842,267.06,504.122,265.073z"/>
<path d="M506.763,447.232c1.224-1.103,2.764-0.989,4.319-0.24C514.02,451.95,504.574,452.863,506.763,447.232z"/>
<path d="M522.843,382.192c0.017,1.342,0.754,1.967,1.92,2.16c0.366,2.926-0.6,4.52-3.601,4.08c-1.359-1.439-2.16-3.439-3.359-5.041
	c0.595,0.035,1.164,0.045,1.2-0.479c-1.102-1.619-4.369-1.072-5.28-2.881c-0.601-0.029-0.752-0.457-0.96,0.24
	c-2.182-3.424-6.595-6.889-5.28-12.24c-0.9-4.596,2.151-10.141,6.96-11.279c1.628-2.113,5.586-2.316,9.12-1.441
	c3.23,0.801,4.669,3.475,6.96,4.561c1.969,3.762,3.815,7.525,2.88,12.721C532.663,376.706,528.076,381.759,522.843,382.192z"/>
<path d="M510.362,179.392c0.62,2.176-0.096,4.998-0.96,6.481C508.139,184.661,508.25,179.524,510.362,179.392z"/>
<path d="M510.843,635.393c-0.339-0.767,1.435-0.606,1.439-0.24C512.504,636.036,511.017,635.589,510.843,635.393z"/>
<path d="M512.763,258.353c-0.037-0.598,0.377-0.742,0.479-1.199c0.4,0,0.8-0.002,1.2,0c0.102,0.457,0.517,0.602,0.48,1.199
	C514.433,259.048,513.331,258.837,512.763,258.353z"/>
<path d="M513.963,469.793c-0.169-0.831,0.841-0.861,1.199-0.48C515.331,470.144,514.322,470.173,513.963,469.793z"/>
<path d="M550.683,279.232c0.333,0.308,0.146,1.135,0.479,1.441c4.413,2.254,9.689,4.715,14.4,7.439c1.546,0.895,3.492,2.291,4.8,2.4
	c1.115,0.092,2.106-0.725,3.12-0.721c2.31,0.01,3.214,1.147,5.04,2.641c3.377-0.258,4.938,1.303,4.56,4.799
	c-0.618,0.502-1.178,1.062-1.68,1.682c-4.397,0.045-7.669,3.049-11.52,2.16c-1.459-0.338-3.522-1.973-3.841-3.842
	c-0.264-1.551,0.928-2.891,0.48-4.559c-0.732-2.733-5.525-3.02-7.2-4.32c0.752,1.656,2.603,2.859,2.641,5.039
	c0.113,6.625-10.288,8.371-12.721,2.16c-0.754-6.186,3.435-8.465,9.12-7.439c-5.195-4.725-13.325-6.516-19.2-10.561
	c-3.302-1.076-6.622-2.955-10.08-4.799c-5.081-2.713-10.789-3.23-13.68-7.441c-0.229-1.678-0.521-2.922-0.479-4.318
	c1.617-2.51,3.802-6.002,7.68-6c3.968,0,8.161,3.227,7.2,8.16c0.904,1.975,1.084,4.676,2.16,6.479c5.124,3.756,11.358,6.4,16.8,9.84
	C549.667,279.657,549.909,279.179,550.683,279.232z"/>
<path d="M516.362,488.992c-0.488-2.072,0.749-3.048,2.16-3.12C524.934,485.548,517.92,495.593,516.362,488.992z"/>
<path d="M524.042,477.712c1.814-2.319,5.257-0.882,5.04,1.68C528.827,482.421,522.877,482.642,524.042,477.712z"/>
<path d="M528.603,277.312c2.307-0.59,2.705,2.037,1.2,2.641C528.27,280.052,527.683,278.298,528.603,277.312z"/>
<path d="M535.082,460.672c0.942,6.526-7.683,3.787-5.279-0.72C530.774,458.131,534.032,458.69,535.082,460.672z"/>
<path d="M531.003,614.752c1.14-0.1,1.544,0.535,1.68,1.44C531.465,616.419,530.434,615.556,531.003,614.752z"/>
<path d="M531.003,675.472c-0.035-0.754,0.615-0.824,1.199-0.96c-0.191-0.94-0.554-2.56,0.24-3.12c2.84,0.04,4.037,1.723,4.32,4.32
	c-0.605,0.356-0.714,1.207-1.92,0.96c-0.471,0.41-0.076,1.684-0.721,1.92C532.125,678.51,531.103,677.452,531.003,675.472z"/>
<path d="M537.003,503.873c1.565,6.128-7.086,4.924-5.761,0.24C531.789,502.179,535.666,501.579,537.003,503.873z"/>
<path d="M534.603,396.353c0.571,0.809,1.431,1.994,0.72,3.359C531.546,402.251,529.398,395.376,534.603,396.353z"/>
<path d="M532.202,687.472c2.686-0.798,6.343,2.409,4.08,5.04C533.42,692.477,531.501,690.279,532.202,687.472z"/>
<path d="M546.603,501.953c0.049-1.009-0.912-1.008-0.96-1.92c1.795-2.764,3.81-5.309,6.479-7.2c0.77-0.209,0.751,0.369,0.96,0.72
	c1.042-0.257,2.013-1.196,3.12-1.2c1.433-0.005,4.855,1.599,6,2.88c0.564,0.631,0.705,1.931,1.44,2.88
	c1.844,2.38,3.701,2.947,4.32,5.76c0.769,3.502-0.643,5.364,0,7.68c-1.507,0.414-1.53,2.31-1.441,4.32
	c-4.407,3.015-9.642,6.592-15.84,7.92c-3.053,0.654-6.214-0.57-9.12,0.96c-2.723-0.874-5.582-1.889-7.92-0.96
	c-0.227-0.894-0.427-1.813-1.2-2.16c0.206-2.354,1.774-3.345,2.88-4.8c0.064-3.438,3.069-4.394,5.04-6.24
	c1.903-1.782,2.568-4.478,4.8-5.76C545.31,503.54,546.107,502.896,546.603,501.953z"/>
<path d="M536.282,555.232c0.694-0.506,2.041-1.368,3.12-0.72c1.928-0.729,1.904-2.413,2.88-3.84c2.073-3.031,5.555-4.576,8.4-6.96
	c1.812-1.519,2.874-4.133,4.56-6.48c1.999-2.782,4.966-5.502,6.24-9.36c0.598-0.362,1.178-0.743,1.92-0.96
	c-1.128-12.054,11.719-15.511,16.32-22.56c-0.501-1.02-1.23-1.811-0.96-3.6c1.07-1.047,2.818-1.436,4.08-0.48
	c1.127-0.313,1.492-1.387,1.68-2.64c-0.43-1.17-3.577,0.377-3.12-1.68c2.309-0.113,4.061,1.224,4.8-0.96
	c-1.146-0.896-2.843-0.153-4.319-0.72c0.623-1.134,3.963-0.738,5.76-0.48c-0.723-2.878-5.202-1.998-6.24-4.56
	c3.057,0.624,4.787,2.573,7.44,3.6c2.597-2.283,5.854-3.907,7.68-6.96c0.755,0.634,1.27-0.507,2.16-0.48
	c0.069-1.51-1.747-1.133-1.44-2.88c1.354-0.074,1.325,1.235,2.16,1.68c1.333-0.107,1.72-1.161,2.4-1.92
	c-0.41-1.59-1.22-2.78-1.44-4.56c1.141,0.7,1.312,2.369,1.92,3.6c3.199,2.397,5.525-0.772,6.721-3.12
	c-0.044-1.476-2.405-0.636-2.641-1.92c-0.272-1.626,1.682-2.899,2.88-1.44c0.361,0.439,0.035,1.154,0.48,1.68
	c0.488,0.577,3.078,2.524,3.6,2.64c3.646,0.81,5.557-1.869,8.16-3.36c3.121,1.121,3.424,4.763,6.96,5.04
	c0.798,0.062,1.967-0.892,2.88-0.72c1.915,0.36,2.293,2.727,0.96,4.32c1.38,2.277,4.788,7.248,6.721,3.12
	c0.179-0.383-0.018-1.264,0.239-1.68c0.822-1.329,2.563-1.891,2.88-3.12c-0.076-0.956-0.013-1.773,0.481-2.16
	c1.931-0.091,1.194,2.486,3.12,2.4c-0.695,2.355,0.978,3.846,0.48,5.76c-0.616,2.372-4.784,2.855-5.52,5.28
	c3.148,7.147,7.623-3.543,11.52-2.64c1.88,0.436,1.505,3.378,3.36,4.32c1.392,0.119,2.183-1.396,3.6-0.48
	c0.161,2.202-1.881,1.909-4.319,2.64c-2.532,0.759-5.658,3.046-8.16,2.88c-1.893-0.126-4.028-1.156-6.48,0
	c-2.047,2.386-0.929,5.639-1.68,8.64c-0.735,2.939-4.417,5.533-3.12,9.12c1.76,2.23,7.842,0.998,6.72,5.52
	c-0.808,3.262-6.929,1.935-6.96-1.92c-0.976-0.096-0.738,1.022-1.44,1.2c-4.443-1.56-8.073,1.851-6.24,5.76
	c-1.19,1.889-2.381,2.742-2.16,5.28c-1.85,1.77-11.425,3.45-8.399,6.72c1.487,1.608,5.284,2.438,6.72,4.32
	c1.488-0.273,3.341-1.636,4.8-0.48c0.38,1.74-0.862,1.857-1.44,2.64c-4.037-0.724-9.465,3.42-5.04,5.28
	c-2.461,2.02-2.638,6.322-4.08,9.36c-0.611,0.429-1.171-0.266-1.681,0.48c-0.101,1.19,0.719,0.136,0.96,0.72
	c-0.357,2.203-2.811,2.309-3.359,4.32c-3.042-0.162-3.18,2.581-5.04,3.6c-6.942,0.237-13.158,1.026-19.441,1.44
	c-2.243,0.148-4.491-0.546-6.72-0.48c-1.543,0.046-2.643,0.831-4.08,1.2c-4.983,1.276-9.954-0.209-15.12-0.72
	c-0.389-0.731-1.218-1.022-1.92-1.44c-0.757-3.566,1.546-5.91,2.16-8.88c-2.47-2.041-7.071,1.61-10.8,2.4
	c-5.793,1.227-10.375-0.108-15.36-1.68C537.091,560.698,536.9,557.988,536.282,555.232z M598.923,532.433
	c-0.601,0.28-0.924,0.837-1.92,0.72c0,0.24,0,0.48,0,0.72C598.265,534.13,599.947,532.947,598.923,532.433z"/>
<path d="M569.162,218.272c-0.563-1.277-2.911-0.77-3.6-1.92c0.312-1.771,2.15-0.596,3.12-0.961c2.161-0.814,2.867-4.113,5.76-4.08
	c1.107-1.193,0.886-2.389,1.68-3.6c1.224-1.863,3.751-2.359,5.28-3.84c3.888-3.76,6.681-9.508,13.68-10.08
	c1.909-3.633-2.712-9.326,1.2-11.279c1.85,1.275,0.374,3.377,0.24,5.279c-0.117,1.674,0.612,4.232,0.481,6.24
	c-0.056,0.836-0.591,1.559-0.481,2.16c0.602,3.279,4.841,3.545,5.28,6.721c4.83,2.807,6.513,9.102,8.64,15.359
	c1.129,3.322,3.534,6.451,4.08,10.56c0.465,3.496-0.767,7.248-0.48,11.039c0.196,2.6,2.373,4.711,2.641,7.201
	c0.292,2.721-0.93,5.014-0.48,7.439c0.579,3.117,3.635,4.119,3.84,7.44c-7.778,1.859-6.308-9.332-10.319-13.199
	c-1.337-1.289-3.286-2.439-5.28-3.6c-2.265-1.32-4.85-3.584-7.92-2.4c-3.743,1.441-6.506,5.656-11.76,7.199
	c-3.045,0.895-5.219,1.117-8.16,3.121c-1.608,1.094-3.995,3.309-5.76,2.879c-1.791-0.436-1.519-3.055-2.88-4.32
	c-1.306-0.135-2.612,0.73-3.36-0.24c-0.127-2.865,1.104-5.801,0.479-8.639c-0.618-2.81-4.211-3.56-5.279-5.76
	c-4.643,0.797-8.602,2.277-12.96,3.359c0.899,1.494,2.832,3.908,3.84,6c0.453,0.939,0.371,2.232,0.72,2.879
	c0.718,1.334,3.007,2.435,0.72,4.32c-1.584,0.225-2.461-0.258-3.359-0.719c-4.655,0.811-9.569-1.832-11.521-5.281
	c-0.354-3.488,1.528-6.949,4.56-7.68c0.855-0.205,1.978,0.133,2.88,0c3.181-0.469,6.987-2.736,10.8-3.6
	c3.606-0.816,6.84-0.914,9.84-2.16c2.471-2.389,0.728-5.959,1.2-9.119C566.903,222.45,569.2,220.796,569.162,218.272z"/>
<path d="M538.443,687.232c2.741-0.199,4.339,1.816,3.6,4.32C539.905,692.149,537.008,689.433,538.443,687.232z"/>
<path d="M540.362,341.392c3.362-1.082,3.941,3.111,2.16,4.32C539.062,346.358,538.535,342.864,540.362,341.392z"/>
<path d="M540.603,299.872c1.299-1.246,3.507-0.695,2.88,1.92C542.22,302.847,539.967,302.151,540.603,299.872z"/>
<path d="M541.803,464.752c0.557-0.077,0.921,0.039,1.2,0.24c-0.209,0.352-0.359,0.761-0.961,0.72
	C541.857,465.499,541.784,465.17,541.803,464.752z"/>
<path d="M543.003,500.752c0.472-1.571-0.034-4.386,2.399-4.56c0.73,1.377-0.439,2.916-0.72,4.08
	C544.229,500.539,543.549,500.579,543.003,500.752z"/>
<path d="M544.202,495.232c0-0.4,0-0.8,0-1.2C544.941,493.665,544.941,495.6,544.202,495.232z"/>
<path d="M544.443,345.712c0.279,0.039,0.427-0.053,0.48-0.24C549.834,346.187,543.035,350.542,544.443,345.712z"/>
<path d="M545.883,329.872c-0.102-0.502,0.164-0.635,0.239-0.959c0.502-0.102,0.636,0.164,0.96,0.24
	C547.193,329.901,546.57,329.919,545.883,329.872z"/>
<path d="M546.603,645.953c-0.088-2.569,1.841-5.198,5.76-4.56c2.36,1.005,3.938,4.993,1.68,7.2
	C551.679,650.903,546.878,649.349,546.603,645.953z"/>
<path d="M549.963,705.472c1.424-0.144,2.421,0.139,2.88,0.96c0.181,0.9-0.917,0.523-0.96,1.2c0.312,0.728,0.695,1.384,0.96,2.16
	c-0.863,0.417-2.005,0.555-3.36,0.48C548.114,708.802,548.511,706.541,549.963,705.472z"/>
<path d="M553.082,426.353c0.416,1.104,1.517,1.523,1.2,3.36C550.937,433.234,548.164,426.259,553.082,426.353z"/>
<path d="M551.403,284.753c0.369,0.365,0.428,1.645-0.479,1.44C550.553,285.827,550.495,284.546,551.403,284.753z"/>
<path d="M560.763,259.312c-4.326,6.805-12.967-1.334-7.92-5.76C556.226,250.585,562.859,253.474,560.763,259.312z"/>
<path d="M554.763,442.672c1.102,0.177,1.873,0.686,2.16,1.68C555.733,445.225,554.099,443.654,554.763,442.672z"/>
<path d="M555.723,485.393c0-0.24,0-0.48,0-0.72c1.063,0.057,1.714,0.526,1.92,1.44C557.32,485.554,556.253,485.742,555.723,485.393z
	"/>
<path d="M556.683,306.353c0-0.24,0-0.48,0-0.721c1.642-0.438,2.868-1.291,5.04-1.199
	C561.346,306.376,558.634,305.983,556.683,306.353z"/>
<path d="M557.883,486.592c2.153,0.168,4.375,2.343,5.52,4.32C561.033,490.002,559.603,488.153,557.883,486.592z"/>
<path d="M562.683,450.832c-5.529,0.407-4.252-6.845,0.24-5.52C565.236,445.995,565.212,449.893,562.683,450.832z"/>
<path d="M564.122,450.353c4.729-0.838,5.166,3.024,3.841,5.76C563.828,457.847,560.66,452.823,564.122,450.353z"/>
<path d="M573.483,269.872c-1.682-0.398-2.477-1.684-3.84-2.4c-3.487-0.033-6.299-0.74-6-4.559c2.994-3.148,4.488,1.02,6.479,3.359
	C571.514,267.907,573.405,268.503,573.483,269.872z"/>
<path d="M567.003,456.832c1.767-1.074,3.741-0.89,5.279-1.2c0.56,1.85,1.924,2.369,1.44,4.56
	C572.759,464.553,564.465,463.069,567.003,456.832z"/>
<path d="M567.723,369.952C570.843,371.694,565.094,372.366,567.723,369.952L567.723,369.952z"/>
<path d="M575.162,623.632c-7.111,0.811-4.305-8.376,0.481-6C577.42,618.515,577.838,622.685,575.162,623.632z"/>
<path d="M573.242,418.672c-0.204,0.044-0.227-0.094-0.239-0.24c0.06-3.23,0.414-6.488,1.92-8.881
	c3.194-5.072,11.701-6.58,17.52-3.359c2.457,1.359,5.212,5.451,5.76,8.4c1.13,6.076-3.285,12.831-8.16,14.16
	C582.31,430.861,575.056,425.776,573.242,418.672z"/>
<path d="M585.483,278.272c0.888-0.152,1.429-0.65,2.64-0.48c5.189,3.23-4.087,7.912-2.88,1.201c-1.104-0.416-2.152-0.889-3.84-0.721
	c-0.905-0.615-1.459-1.582-2.16-2.4c-4.59,1.088-6.863-5.572-3.6-6.24c2.31-0.473,4.057,3.047,6,4.561
	c0.852,0.664,1.538,0.545,1.92,0.961C584.333,275.991,584.504,277.726,585.483,278.272z"/>
<path d="M583.082,472.433c0.35,0.69,1.51,0.57,1.681,1.44c0.08,0.88-0.369,1.231-0.96,1.44c-1.767-0.185-0.607-2.056-1.681-2.64
	c-2.258,1.601-3.838,1.466-6-0.48c0.139-0.502,0.596-0.685,0.481-1.44c-1.053-1.027-1.434-2.727-2.4-3.84
	c0.853-2.817,2.416-5.381,5.521-5.28c2.891,0.094,4.951,3.568,3.359,6.48c0.042,1.319-0.073,2.793,0.721,3.36
	C583.732,471.962,583.153,471.943,583.082,472.433z"/>
<path d="M575.883,378.353c1.042-0.082,1.259,0.66,1.439,1.439c-0.555,0.326-0.795,0.965-1.92,0.721
	C574.931,379.921,575.083,378.415,575.883,378.353z"/>
<path d="M583.322,672.112c5.126,2.507,2.727,10.579-3.12,9.36C575.001,680.388,576.003,670.423,583.322,672.112z"/>
<path d="M583.082,347.153c0.086,1.365,0.06,2.619-0.72,3.119C577.028,351.319,579.837,343.919,583.082,347.153z"/>
<path d="M586.683,358.192c-0.482-1.363-0.024-2.6,1.2-2.881C593.47,354.032,588.522,363.405,586.683,358.192z"/>
<path d="M591.723,475.793c2.117,0.072,2.598,2.962,2.16,4.8C592.39,479.836,589.478,477.344,591.723,475.793z"/>
<path d="M592.202,157.792c0-0.24,0-0.48,0-0.719c0.83-0.191,1.014,0.266,1.44,0.479
	C593.612,158.083,592.624,157.655,592.202,157.792z"/>
<path d="M598.923,687.232c-0.982,0.734-1.324,1.751-2.4,1.92c-5.014,0.788-4.823-6.393-0.72-6.48
	C597.403,682.639,599.347,683.779,598.923,687.232z"/>
<path d="M597.242,283.552c0.673-0.234-0.349-0.641,0.24-0.959c1.084,0.275,1.35,1.369,1.92,2.16
	c-0.772,1.729-0.455,4.078-2.16,4.559c-2.594,0.733-5.146-2.062-4.08-5.279C594.124,283.128,595.84,282.778,597.242,283.552z"/>
<path d="M596.282,463.313c1.448-1.374,3.571,0.7,2.16,2.16C596.79,465.684,596.07,464.964,596.282,463.313z"/>
<path d="M598.202,473.152c-0.099-0.979,0.246-1.514,1.2-1.44c0.331,0.31,0.237,1.042,0.24,1.68
	C599.051,473.424,598.486,473.429,598.202,473.152z"/>
<path d="M600.362,360.353c-0.184-0.988,0.818-1.512,1.44-0.961C601.771,360.161,601.259,360.448,600.362,360.353z"/>
<path d="M606.122,372.353c0,0.561,0,1.119,0,1.68c-0.932,0.236-0.98,0.934-1.68,0.961
	C601.009,375.12,603.341,369.185,606.122,372.353z"/>
<path d="M610.202,380.513c-3.243,1.629-4.562-2.865-2.16-3.6C609.869,376.354,611.565,378.519,610.202,380.513z"/>
<path d="M610.683,297.952c-0.375-1.42,0.211-2.873,1.92-3.119c2.954-0.426,5.384,4.541,2.16,5.52
	C612.909,300.915,611.099,299.526,610.683,297.952z"/>
<path d="M611.162,383.632c0.801-1.309,3.481-1.203,4.32,0C616.38,387.618,610.255,387.716,611.162,383.632z"/>
<path d="M618.122,709.313c-1.359,0-2.72,0-4.08,0c-6.565-4.182,4.832-10.396,5.761-3.84
	C620.089,707.493,619.015,708.022,618.122,709.313z"/>
<path d="M620.523,388.673c0.241,0.955,0.148,1.557-0.24,2.4C616.442,392.905,617.396,386.091,620.523,388.673z"/>
<path d="M621.723,683.152c-1.965-5.811,8.428-4.834,6.479,0C627.431,685.067,622.704,686.057,621.723,683.152z"/>
<path d="M621.963,467.632c0.395-1.559,2.047-3.024,3.6-2.64C625.708,467.093,623.385,467.887,621.963,467.632z"/>
<path d="M623.643,667.313c-5.946-5.625,7.385-9.381,6-2.16C629.218,667.367,626.576,667.783,623.643,667.313z"/>
<path d="M624.843,300.353c1.181-0.063,1.943,0.297,2.16,1.199C626.625,303.763,622.966,301.858,624.843,300.353z"/>
<path d="M625.803,561.712c-1.158-3.502,4.322-2.84,4.56-0.72C630.621,563.3,626.596,564.111,625.803,561.712z"/>
<path d="M627.242,689.632c-1.372-2.665,4.008-3.606,4.08-0.96C631.372,690.489,628.091,691.281,627.242,689.632z"/>
<path d="M628.202,669.472c1.269-0.068,2.387,0.014,3.12,0.48C633.012,674.411,624.901,672.813,628.202,669.472z"/>
<path d="M635.643,645.472c-1.445,1.042-3.185,0.674-5.04,0.96c-1.735-1.858-3.348-3.102-2.88-5.76c0.543-3.083,5.066-3.962,7.2-1.92
	C636.361,640.128,636.644,643.265,635.643,645.472z"/>
<path d="M630.603,624.112c-0.24,0-0.481,0-0.72,0C628.642,622.373,631.843,622.373,630.603,624.112z"/>
<path d="M647.162,603.232c1.157-0.364,1.584-1.456,2.4-2.16c4.238-1.227,5.734,2.012,7.2,4.32c-0.457,0.45-0.603,0.026-1.2,0
	c-0.362,2.3-3.44,3.265-5.76,2.16c-0.989,11.036-20.484,5.733-13.681-4.32C638.269,600.733,645.167,600.084,647.162,603.232z"/>
<path d="M637.082,617.632c2.696-3.204,8.809-1.465,7.921,2.88c-0.678,3.312-5.797,2.943-7.921,0.72
	C636.837,619.744,637.055,619.254,637.082,617.632z"/>
<path d="M639.483,598.192c0.175-0.488,0.723-0.98,1.2-0.48C640.851,598.544,639.841,598.573,639.483,598.192z"/>
<path d="M639.963,431.632c-0.564-1.361-0.059-2.428,1.199-2.64C645.842,428.205,641.702,435.838,639.963,431.632z"/>
<path d="M641.403,311.392c1.941-0.262,2.652,0.709,3.601,1.441c0,0.879,0,1.76,0,2.639
	C642.343,317.991,638.361,313.21,641.403,311.392z"/>
<path d="M641.162,549.232c1.573-1.79,5.363-0.969,4.56,2.4C644.173,553.501,640.316,552.579,641.162,549.232z"/>
<path d="M647.162,473.152c0.213,2.543-1.393,3.806-3.12,3.6C639.984,476.268,643.818,470.231,647.162,473.152z"/>
<path d="M645.483,531.953c0.872,0.007,1.055,0.706,0.96,1.68C644.842,534.744,643.781,532.336,645.483,531.953z"/>
<path d="M646.923,433.072c1.681-0.241,1.763,1.117,3.6,0.72C654.003,439.32,642.579,436.027,646.923,433.072z"/>
<path d="M648.122,616.192c0.783-0.062,1.155,0.285,1.2,0.96c-0.213,0.106-0.429,0.211-0.479,0.48
	C648.035,617.69,647.603,616.741,648.122,616.192z"/>
<path d="M648.603,532.433c1.603-0.797,2.135-2.666,4.32-2.88C654.995,532.434,649.046,538.317,648.603,532.433z"/>
<path d="M653.643,318.833c-1.199,0.131-1.275,0.969-2.16,0.959c-2.082-0.02-3.553-2.947-1.92-4.32
	C651.156,314.132,654.181,315.22,653.643,318.833z"/>
<path d="M650.282,706.672c-0.163-1.178,1.921-0.343,2.641-0.24C652.809,707.888,651.019,706.757,650.282,706.672z"/>
<path d="M654.362,575.632c6.623-1.047,13.212,1.675,12.96,7.44c-0.116,2.656-2.056,4.029-3.6,5.76
	c-7.855,3.058-15.058-3.637-11.52-10.56C653.249,577.719,654.294,577.164,654.362,575.632z"/>
<path d="M652.443,417.953C657.729,418.707,650.134,422.673,652.443,417.953L652.443,417.953z"/>
<path d="M656.042,540.592c3.028,0.092,3.408,2.832,5.52,3.84c-0.868,2.834,1.523,3.082,2.88,4.32c0.44,2.011,0.362,3.522-0.479,5.28
	c1.082-0.133,3.139,0.114,4.319-0.72c-0.045,1.942,1.53,2.593,1.44,4.32c-0.112,2.148-2.143,3.542-4.56,3.12
	c-2.289-0.399-3.196-2.464-2.64-5.28c-2.864,1.48-5.118-0.22-7.2-1.92c0.358-1.917-0.573-3.14,0.72-4.56
	C651.85,547.56,651.799,541.884,656.042,540.592z"/>
<path d="M652.923,347.153c-1.36-7.471,9.331-6.906,9.359-0.721C662.306,351.474,654,353.073,652.923,347.153z"/>
<path d="M655.803,319.073c2.986-0.326,4.737,1.793,3.84,4.559C656.2,325.903,652.379,320.987,655.803,319.073z"/>
<path d="M659.643,517.793c0.029-0.611,0.35-0.931,0.96-0.96c0.186,0.213,0.258,0.542,0.24,0.96
	C660.528,518.101,659.958,518.101,659.643,517.793z"/>
<path d="M667.563,489.232c2.166,2.779-0.619,7.267-5.04,6.48C660.629,492.383,663.633,488.997,667.563,489.232z"/>
<path d="M665.883,452.512c-3.639,2.922-5.188-3.751-1.681-3.6C665.854,448.983,666.225,450.517,665.883,452.512z"/>
<path d="M671.643,692.512c0.557-0.076,0.921,0.039,1.2,0.24C672.822,693.466,671.411,693.395,671.643,692.512z"/>
<path d="M675.003,629.152c1.146,0.125,2.685,0.895,1.92,2.16C675.661,631.301,674.492,630.163,675.003,629.152z"/>
<path d="M681.003,441.472C675.476,442.664,681.577,436.262,681.003,441.472L681.003,441.472z"/>
<path d="M679.803,521.152c0.612,0.379,1.861,1.024,1.2,1.92C680.396,522.688,679.078,522.112,679.803,521.152z"/>
<path d="M680.763,354.833c-0.05-1.545,1.967-2.117,3.12-1.68C683.494,354.364,682.139,354.608,680.763,354.833z"/>
<path d="M681.242,587.632c0.85-0.129,1.236,0.204,1.44,0.72c-0.032,0.768-0.544,1.056-1.44,0.96
	C680.901,588.992,680.901,587.953,681.242,587.632z"/>
<path d="M681.242,532.433c-0.062-0.783,0.285-1.155,0.96-1.2c0.103,0.458,0.686,0.434,0.48,1.2
	C682.376,532.761,681.549,532.761,681.242,532.433z"/>
<path d="M684.122,462.592c-0.634-4.009,5.69-4.764,6.481-1.44C691.56,465.176,684.895,467.471,684.122,462.592z"/>
<path d="M684.603,474.353c0.751-0.111,1.071,0.208,0.96,0.96C684.901,476.06,683.856,475.014,684.603,474.353z"/>
<path d="M687.003,482.272c1.537-1.285,3.851-0.323,3.359,2.4C688.898,486.335,685.659,484.78,687.003,482.272z"/>
<path d="M688.443,336.112c-2.052-5.949,7.446-2.666,5.28,0.961C692.621,338.917,689.114,338.058,688.443,336.112z"/>
<path d="M689.162,638.512c2.097-0.336,2.977,0.544,2.641,2.64C689.969,643.092,687.193,640.374,689.162,638.512z"/>
<path d="M696.122,469.072c-2.344-1.857-0.74-5.579,1.681-5.52C701.349,463.639,701.585,470.257,696.122,469.072z"/>
<path d="M696.843,614.992c-0.062-0.782,0.284-1.155,0.96-1.2c0.328,0.307,0.328,1.133,0,1.44
	C697.301,615.334,697.167,615.068,696.843,614.992z"/>
<path d="M699.242,611.873c-0.102-0.502,0.165-0.636,0.24-0.96c0.24,0,0.481,0,0.72,0c0.309,0.315,0.309,0.884,0,1.2
	C699.772,612.143,699.697,611.819,699.242,611.873z"/>
<path d="M705.963,600.112c0.031,0.592,0.036,1.156-0.24,1.44c0.358,0.38,0.982,0.177,1.2-0.24c0.728,0.392,0.874,1.366,1.92,1.44
	c0.75,0.073-0.61-0.693,0.239-0.72c0.442,1.23,0.734,3.424,2.881,3.6c-1.153,2.844-2.807,7.214-6.24,6.24
	c-1.061,0.252-0.295,1.085-0.72,1.68c-1.319-0.121-0.768-2.113-2.641-1.68c-0.343-1.978-1.804-2.837-3.12-3.84
	c-0.548-2.788,0.955-3.525,1.92-4.8C703.836,603.266,703.954,600.744,705.963,600.112z"/>
<path d="M700.443,623.632c0-0.24,0-0.48,0-0.72C702.183,621.672,702.183,624.873,700.443,623.632z"/>
<path d="M702.362,499.793c0.16,0,0.32,0,0.481,0c0.362,0.339,0.758,1.165,0.239,1.68c-0.319,0-0.64,0-0.96,0
	C701.605,500.958,702,500.131,702.362,499.793z"/>
<path d="M706.443,465.472c1.779-0.686,3.12,0.176,3.12,1.44C709.563,469.744,704.247,468.616,706.443,465.472z"/>
<path d="M713.403,616.433c-0.041,2.057-0.999,3.161-2.64,3.12C705.956,619.434,710.408,612.008,713.403,616.433z"/>
<path d="M-116.517,493.552c8.175,1.25,16.159,2.473,24.96,4.08c-0.416,0.673-0.629,0.226-1.44,0.24
	c0.752,1.261,2.005-0.351,2.88-0.48c3.128,0.673,5.471-0.503,8.88-0.72c0.029-1.01,0.974-1.106,1.2-1.92
	c-0.106-2.572-3.77-1.017-5.04-1.92c2.159-2.609,8.323-1.085,12-0.96c1.271,2.168,3.578,3.302,6.72,3.6
	c-0.712-1.768-3.096-1.864-4.08-3.36c3.601-0.66,7.46,3.691,11.28,3.6c0.035-1.395-1.245-1.475-2.16-1.92
	c-0.041-0.521,0.851-0.109,1.2-0.24c-0.87-1.496,0.279-1.368,0.24-3.12c-0.007-1.273-1.543-1.018-1.44-2.4
	c0.75-1.788,3.218-0.665,4.56-0.96c2.938-0.645,5.276-3.914,9.12-3.36c-0.087-2.473-2.73-2.39-3.36-4.32
	c1.514-1.563,2.981,0.312,3.6,1.68c5.368,3.432,9.455,8.145,16.56,9.84c0.949-0.107-0.29-1.033,0.72-1.2
	c3.933,0.868,6.156,3.444,9.12,5.28c5.416,0.097,11.885,2.419,17.52,2.16c3.898-0.179,7.533-0.617,11.76,0
	c0.831,0.121,1.623,0.584,2.4,0.72c5.276,0.923,11.14,0.369,16.08,0.48c2.538,0.057,5.293-0.909,7.92-0.72
	c1.157,0.083,2.529,1.051,3.84,0c2.294,0.235,7.484,0.697,10.8,0.24c0.748-0.103,1.413-0.625,2.16-0.72
	c7.3-0.937,14.626-0.363,22.56-1.2c-3.772-4.308-13.419-2.742-17.52-6.72c1.546,0.118,3.986,1.833,6.72,2.16
	c0.587,0.07,1.11-0.364,1.68-0.24c0.761,0.165,1.444,0.876,2.16,0.96c3.513,0.412,8.129-1.267,6.48-4.56
	c1.423,0.573,2.176-0.396,2.88-1.2c-0.165-1.377-0.49-2.521-1.44-3.12c-6.256-3.946-13.212-10.315-19.68-14.88
	c-3.782-2.669-5.922-5.303-9.36-7.92c-1.403-1.069-2.13-2.128-4.56-2.16c-0.658-0.837-1.508-2.575-0.96-3.84
	c1.521-0.731,2.902,0.566,3.84,1.2c0.138,0.502,0.595,0.685,0.48,1.44c8.612,7.148,16.79,14.73,26.64,20.64
	c3.916,0.191,7.02,4.046,10.56,4.32c2.552,0.197,5.035-1.751,7.92-0.48c1.292-0.355,2.942-1.473,3.84-1.44
	c1.067,1.652,2.611,2.829,2.88,5.28c5.782-1.098,12-1.76,15.84-4.8c5.162-0.348,9.229-1.902,14.88-1.2
	c0.601-1.172-1.535-1.438-1.68-2.64c2.27,0.21,3.335,1.625,5.04,2.4c1.064-3.419-3.545-5.23-5.04-7.68
	c-1.301-0.46-3.058-0.462-3.12-2.16c2.621-0.551,3.664,2.12,6,1.92c0.982-0.084,2.304-1.876,4.32-2.64
	c0.604-0.229,1.22-0.039,1.68-0.24c1.003-0.438,1.486-1.354,3.6-0.96c2.399-2.498,4.295-3.633,7.44-0.48
	c2.033,2.038,4.285,5.595,5.76,7.92c6.226,1.046,10.678-3.227,14.64-4.32c5.484-1.513,13.02-1.999,18.48-2.4
	c4.051-0.297,8.694-0.66,12.48-1.44c3.275-0.675,6.812-0.015,9.84-0.72c2.525-0.588,4.1-2.62,6.48-3.36
	c0.635-1.045,1.682-1.679,2.16-2.88c-0.49-2.15-2.098-3.182-2.64-5.28c2.815,1.024,2.896,4.785,5.04,6.48
	c0.616-0.024,0.386-0.895,0.72-1.2c2.8-0.302,5.58,0.39,8.16,0c3.7-0.56,6.027-2.718,11.04-2.64c2.273,0.036,3.99,0.886,6.24-0.24
	c1.847-0.924,2.53-2.842,4.56-3.6c0.352-0.132,0.84,0.113,1.2,0c3.682-1.155,5.429-2.771,10.32-2.16
	c0.614,0.077,1.163,0.575,1.92,0.72c1.63,0.312,3.965-0.028,5.76,0.72c1.316,0.548,2.337,2.163,4.56,2.88
	c1.982-0.801,4.112-2.069,6.72-0.96c0.998-0.202,0.964-1.435,1.92-1.68c2.578,0.062,4.625,0.654,6.24,1.68
	c0.671-1.568,1.141-3.339,2.16-4.56c-0.022-0.938-0.97-0.95-1.44-1.44c1.086,0.281,2.911,0.555,5.28,0.48
	c1.126-0.328,0.52-2.509,2.16-1.68c-0.045-2.914-1.746-4.174-3.6-5.28c3.391-0.27,4.193,4.126,5.76,6.48
	c-0.278-0.202-0.644-0.317-1.2-0.24c0.9,2.86,4.061,3.459,5.52,5.76c1.82-0.899,4.767-1.044,6,0.48
	c-0.266-1.685,0.397-3.927,1.2-5.28c5.134-3.517,12.423,0.225,11.52,7.2c-1.501,5.461-10.327,4.264-12-0.24
	c-0.088,2.778-3.963,3.365-5.52,1.44c-1.321,0.599-2.1,1.74-3.12,2.64c-3.027,0.092-4.929,1.311-6.72,2.64
	c-1.291-0.197,0.721-0.314,0.24-1.2c-1.46-0.779-2.739-1.741-4.08-2.64c-1.901,0.775-4.878,2.369-7.44,0.96
	c-2.311,1.5-5.899,0.191-8.64,1.2c-1.199,0.441-2.042,1.655-3.12,2.16c-3.413,1.6-6.922,2.23-11.52,3.12
	c-3.247,0.628-6.543,0.485-10.08,1.2c-3.253,0.657-6.276,2.493-9.6,3.36c-2.152,0.561-4.559,0.484-6.72,0.96
	c-2.499,0.55-4.559,2.151-6.96,2.64c-3.75,0.763-7.615,0.46-11.76,0.96c-3.386,0.409-7.016,1.518-10.56,2.16
	c-3.999,0.725-8.054,1.677-11.76,2.16c-4.491,0.585-9.138,0.665-13.68,1.44c-1.88,0.321-3.649,1.171-5.52,1.44
	c-5.981,0.859-12.031,0.863-17.52,3.36c-0.313,1.607-0.959,2.881-1.92,3.84c-2.684,0.436-6.242-0.002-6.72,2.64
	c-2.969-1.249-7.783-2.651-11.28-1.2c-0.652-0.723,0.525-1.071,0.24-2.16c-2.968,0.072-5.388,0.692-7.441,1.68
	c-8.831,0.535-17.859,2.936-26.4,4.56c-0.807,0.393-1.246,1.154-2.4,1.2c-0.629,1.371-1.144,2.856-2.16,3.84
	c2.578,0.038,5.248-1.932,8.16-2.4c3.994-0.642,6.742,1.547,9.6,3.36c0.964-0.252-0.032-0.975,0.24-1.92
	c0.771,0.27,0.648,1.432,1.2,1.92c3.004,1.011,7.006,0.623,6.96,3.6c-0.043,2.787-3.381,1.558-4.08,4.08
	c-0.874-0.926-2.089-0.019-3.36-0.48c-2.409,5.144-7.909,5.973-14.88,4.08c-2.023-0.549-4.046-2.4-5.76-2.4
	c-1.006,0-1.532,0.912-2.64,1.2c-1.425,0.371-3.076-0.401-3.84,0.72c-3.894-1.642-7.789,0.027-12-0.72
	c-2.334-0.415-4.622-1.739-6.48-1.68c-2.116,0.067-4.609,1.808-7.2,1.92c-0.652,0.028-1.535-0.332-2.16-0.24
	c-2.211,0.325-4.488,2.483-7.2,1.2c-2.022,2.698-7.595,1.845-10.32,3.84c-3.935-1.115-5.904,1.487-10.08,1.44
	c-2.676-2.643-9.621-3.205-13.68-1.68c-0.659-0.381-1.562-0.518-2.16-0.96c-4.539,0.61-8.666,2.807-13.44,1.2
	c-2.045-0.689-4.017-3.582-6.96-1.44c0.726,2.235,3.987,1.933,4.32,4.56c-3.764,1.253-6.364-2.515-9.36-3.6
	c-0.183-2.071-2.248-3.262-2.16-5.04c0.12-2.413,2.855-2.494,5.04-3.6c-13.907-1.361-27.923,5.137-42.24,1.92
	c-0.626-2.974-4.729-2.471-7.2-3.6c-1.725,0.054-1.76,1.503-3.12,2.16c-2.576,1.243-5.485,0.21-8.64,0.24
	c-6.253,0.06-14.185,0.87-18.48-2.4c-8.491-1.122-20.38-3.538-30.96-4.8C-116.517,498.512-116.517,496.032-116.517,493.552z
	 M-75.957,496.433c2.035,0.668,3.667,0.832,5.04-0.48c0.19,0.214,1.47,1.062,1.44,0c-2.82-0.38-3.913-2.487-6.96-2.64
	C-77.482,494.187-75.956,495.17-75.957,496.433z M-0.837,507.232c-0.667,0.049-2.471-0.858-2.64,0.24
	C-2.651,507.853-1.228,508.272-0.837,507.232z M27.963,510.833c-0.935-1.397,0.828-1.147,0.96-2.16
	c-5.688,0.429-9.599-0.877-14.16-0.24C18.195,510.619,22.661,510.957,27.963,510.833z M34.443,508.672
	c-1.316,0.284-3.791-0.59-4.32,0.48C31.245,509.731,33.864,509.933,34.443,508.672z M44.523,510.833
	c0.879-3.472,5.627-1.689,8.16-3.6c-5.819,0.61-10.264,1.36-16.32,1.44c-0.187,0.053-0.279,0.201-0.24,0.48
	C38.822,510.345,41.927,509.725,44.523,510.833z M76.443,503.632c1.232-0.207,3.492,0.612,3.36-0.96
	c-0.527-0.629-0.797,0.745-1.44,0c-0.098-0.578,0.439-0.521,0.24-1.2c-1.113,0.247-2.189,0.531-2.64,1.44
	C76.3,502.975,76.236,503.439,76.443,503.632z M93.723,502.192c-0.612,0.028-1.235,0.045-1.2,0.72
	C93.277,503.026,93.503,502.613,93.723,502.192z M96.123,485.873c-0.081-0.56-0.246-1.034-0.72-1.2
	C94.936,485.135,95.152,486.142,96.123,485.873z"/>
<path d="M70.683,257.632c1.539,1.182,2.573,2.867,4.32,3.84c1.581-0.818,1.017-3.783,2.88-4.318c2.877,0.637,3.132-1.348,5.76-0.961
	c3.415-5.625,7.668-10.412,14.4-12.721c1.768,0.975,3.387-0.076,5.04,0c1.153,0.055,2.009,1.059,3.36,1.441
	c0.916,0.258,1.98-0.014,2.64,0.24c0.718,0.275,1.027,1.053,1.92,1.68c0.889,0.623,2.289,0.744,2.88,1.199
	c1.07,0.822,1.342,2.533,2.88,2.4c-0.42,1.779,0.951,1.77,1.68,2.4c-0.766,2.559,1.427,3.5,2.16,5.279
	c-0.8,2.188-0.155,4.252,0.96,5.76c-0.58,1.738-1.506,2.406-0.72,4.561c-0.759,0.279-1.689,0.391-1.92,1.199
	c0.298,1.395,0.619,1.842,0,3.121c3.361,4.494-2.81,9.334-6.48,6c-0.96,0-1.92,0-2.88,0c-2.697,2.426,1.743,4.174,2.16,6.479
	c-0.346,0.135-0.586,0.375-0.72,0.721c-3.575-1.145-4.226-5.215-7.92-6.24c1.507,3.053,3.228,5.893,4.32,9.361
	c0.147,6.146-2.092,9.908-4.8,13.199c1.213,3.107,5.938,2.701,8.16,4.801c0.812,4.467,5.189,5.371,6,9.84
	c1.999,0.783,4.242,4.402,1.68,6.24c-3.239-0.006-1.839-3.131-2.4-5.281c-0.247-0.947-1.438-1.439-2.16-2.4
	c-1.503-1.998-2.456-4.482-3.6-5.52c-0.764-0.691-1.78-0.742-2.64-1.44c-2.275-1.846-4.04-4.396-6-4.56
	c-2.299-0.191-5.111,2.502-8.4,2.641c-7.593,0.32-13.107-2.777-16.08-9.121c-1.28,0.16-1.228,1.652-2.16,2.16
	c-2.383,0.223-3.342-0.979-4.32-2.16c-1.11-3.934,2.504-5.67,4.56-3.6c2.352-3.455-3.975-4.893-4.32-1.439
	c-2.219-0.379-3.19,0.488-4.08,1.439c-0.733,0.174-0.875-0.244-1.44-0.24c-1.649,1.291-4.819,1.32-7.68,1.92
	c-2.331,0.49-6.229,2.627-8.4,0.24c-2.43,0.549-4.296,2.273-6.48,0.961c-0.929-0.129-0.988,0.611-1.68,0.719
	c-3.903-1.33-6.803,1.603-10.08,2.4c-0.815,0.225-0.735,1.346-1.2,1.92c-2.214-0.74-2.757,0.688-5.04,0.48
	c-0.82,0.619-0.752,2.127-1.2,3.119c-0.64,0-1.28,0-1.92,0c-2.436,3.006-5.191,5.69-5.76,10.561c-1.194-1.479-0.426-5.869,0.96-7.44
	c-3.916-0.691-4.992,5.549-7.44,7.92c-1.913-1.607,0.779-2.887,0.72-4.801c-1.712-1.635-3.807,2.328-5.76,0.48
	c1.812-2.908,6.352-3.088,8.16-6c-1.991-1.268-6.521-1.199-7.44,1.439c-1.439-0.469-2.878,0.682-4.56,0.721
	c-1.912,1.438-2.896,5.529,0.48,6c-0.47,1.18-2.439,1.699-3.84,1.199c-0.256-0.897,0.596-0.684,0.48-1.44
	c-0.193-0.984-0.988,0.125-1.44-0.48c-0.026-2.105,0.498-3.662,0.72-5.52c-1.617,0.623-3.389,1.092-3.6,3.121
	c-2.213,0.666-5.634,0.125-6.48,2.158c-1.656-0.539-2.611-0.402-4.08,0.24c-0.118,0.754,0.828,0.635,0.24,1.201
	c-1.294,0.147-1.178,1.701-1.2,3.119c2.831,3.426-1.907,8.076-5.04,6.961c1.539-2.914,3.665-6.769,0.72-9.84
	c-0.277-1.238,0.5-1.422,0.72-2.16c-2.565-2.096-7.384-0.457-9.36-3.121c-0.81,0.42-1.515-0.467-2.4-0.48
	c-1.695-0.024-2.261,1.363-4.08,2.16c-2.725,1.195-5.417-0.385-6.72,1.92c-0.05,2.178,1.191,3.646,2.4,5.281
	c2.163,2.924,4.411,6.174,6.48,10.32c1.303,2.611,3.28,5.857,4.56,7.439c0.642,0.793,1.675,0.965,2.4,1.68
	c1.455,1.438,2.292,3.971,3.12,6.24c0.354,0.971,1.141,1.791,1.2,2.641c0.404,5.82-5.46,4.785-7.68,1.68
	c-0.341-0.479-0.367-1.348-0.72-1.92c-0.312-0.508-0.83-0.488-1.2-0.961c-1.206-1.541-1.357-4.59-1.68-7.199
	c-0.96-7.766-6.507-11.91-10.8-16.08c-3.572,1.547-4.859,5.381-8.88,6.48c-0.604-0.277-0.755-1.006-1.2-1.441
	c1.028-3.772,4.195-5.404,6.24-8.16c0.019-3.299-1.9-4.658-3.6-6.238c-3.555-5.566-8.167-10.074-16.08-11.281
	c-0.331-0.309-0.237-1.043-0.24-1.68c-1.065-1.877-2.916-2.988-4.56-4.561c-0.798-0.762-1.39-2.191-2.4-2.879
	c-1.187-0.811-5.176-2.068-7.44-2.881c-1.699-0.609-4.92-0.078-6-1.68c-2.705,0.184-10.071-0.906-7.2-5.039
	c0.679-0.979,1.821-1.939,2.88-3.121c3.1-3.459,5.635-6.873,12.72-6.721c3.663,0.08,9.073,0.58,12.48,1.441
	c1.826,0.461,5.049,1.588,7.2,1.92c2.813,0.434,5.632,0.605,7.2,2.16c1.927-0.189,4.479,2.275,5.52,0
	c-0.884-1.756-3.604-1.676-4.08-3.84c0.454-0.691,2.1-0.561,2.88-0.24c0.692-2.137-1.278-3.68-1.92-5.281
	c-0.137-3.143-1.546-5.014-2.64-7.199c-0.373-3.27,0.023-6.971-0.48-10.561c-0.349-0.451-1.571-0.029-1.92-0.479
	c-0.203-1.645,0.136-2.744,0.96-3.361c2.375,0.592,3.609-0.898,4.32-2.639c-0.207-1.049-1.25,0.127-1.68-0.48
	c-0.958-0.963-0.382-3.459-1.92-3.84c0.88-3.68,3.617-5.504,6.24-7.441c-0.219-0.656-0.841,0.426-1.2-0.238
	c4.387-2.076,9.864-6.143,15.12-5.041c4.2-2.199,6.684-6.115,12-7.199c-0.859-3.203-3.094-7.051-1.44-10.32
	c1.058-0.018,1.229,0.85,1.68,1.439c1.009-0.67,0.239-3.121,0.48-4.56c0.343-0.617,1.652-0.268,1.92-0.959
	c-1.793-2.287-2.256-5.904-4.56-7.68c-2.514,1.047-4.862,0.99-7.44,0c1.746-1.986,1.384-4.627,3.84-5.76
	c0.13-0.852-0.85-0.592-0.72-1.441c1.524-3.035,5.305-3.814,7.68-6c-1.043-0.26-2.392-0.301-3.6-0.479
	c0.339-1.223,1.694-0.396,2.64-0.24c0.567-0.564-0.039-1.18,0-1.92c1.837-2.643,5.556-3.404,6.96-6.481
	c1.869-0.215,2.939-2.496,5.04-1.68c1.83-1.051,4.038-1.723,5.28-3.361c1.144-0.264,0.331,1.43,1.2,1.441
	c2.105,0.025,2.667-1.494,4.56-1.682c-0.318,0.715-0.246,1.219,0.24,1.682c3.95,0.018,5.788-2.076,9.36-1.201
	c0.427,0.613,1.032,1.049,1.2,1.92c0.64,0,1.28,0,1.92,0c0.463,1.457,0.535,3.305,1.44,4.32c-0.384,2.68,1.005,4.67,0.72,6.721
	c-0.211,1.518-1.638,2.15-1.44,3.84c-3.142,1.658-7.803,1.797-9.84,4.56c-1.748,0.252-3.372,0.627-4.56,1.44
	c-1.392-0.111-2.523,0.037-3.12,0.719c0.506,2.805-0.728,6.115,0.96,7.922c1.871,0.223,1.905-2.512,3.6-1.682
	c-0.077-0.562-0.379-0.9-0.24-1.68c0.799,0.221,0.125,0.961,0.96,1.44c2.15-1.092,4.346-0.924,6.48-0.959
	c0.353-0.006,0.97,0.717,0.96,0.721c1.854-0.512,1.58-2.553,3.84-2.881c-0.151,1.129-0.581,1.981-1.2,2.641
	c0.322,0.396,1.26,0.18,1.2,0.959c1.308-0.051,2.885,0.166,3.84-0.24c1.163,0.678,2.256,1.424,3.84,1.682
	c1.441,1.918,3.08,3.639,4.56,5.52c1.311,5.385-0.649,9.121-1.92,13.199c1.886-0.119,4.337,0.824,6.72,0.961
	c0.852-0.269,0.258-1.982,0.96-2.4c3.176-0.873,3.574,3.146,1.92,4.32c2.299,1.59,3.456,5.162,2.64,9.119
	c-0.666,0.775-1.735,1.147-2.88,1.439c0.568,0.793,0.912,1.809,2.4,1.682c0.699-2.342,2.901-3.18,3.6-5.521
	c3.637-0.303,2.992,3.268,0.48,4.08c-0.028,1.478,1.132,1.941,1.2,3.361c0.127,2.643-2.848,5.762-0.24,8.398
	c7.608,0.459,0.795,7.781,1.2,11.521c0.284,2.623,3.896,4.621,4.8,7.44c0.465,1.451-0.086,2.688,0.24,4.56
	c2.136,1.363,7.606-0.293,6.48,3.84c0.767,0.514,1.391,1.168,1.92,1.92c2.708-2.252,7.57-2.35,10.08-4.801
	c4.936,0.387,6.982-4.006,8.88-7.439C72.546,261.689,72.163,259.112,70.683,257.632z M-51.477,296.993
	c-1.883-0.02-2.52,1.887-4.32,2.16c-1.835,3.516,1.044,5.225,3.6,7.68c2.37,2.275,3.639,4.606,6.48,5.039
	c0.942-1.057,2.431-1.568,3.36-2.641c-3.059,0.855-4.1-2.051-6-3.119c0.089-2.631-0.297-5.736,0.48-7.68
	C-49.387,298.079-50.088,297.005-51.477,296.993z M-46.678,280.192c0.152-1.111-1.312-0.607-2.16-0.721c0,0.24,0,0.48,0,0.721
	C-47.72,279.612-47.502,280.706-46.678,280.192z M-19.557,237.232c1.178-0.244,1.281-2.588,0.24-3.119
	c-0.219,0.422-0.841,0.44-1.2,0.721C-20.55,235.985-20.335,236.89-19.557,237.232z M-14.997,237.232
	c0.807-0.393,1.247-1.152,2.4-1.199c0.291-1.228,0.889-2.152,0.96-3.6c-1.633-0.527-3.072-1.248-4.56-1.92
	C-17.335,232.808-16.731,235.944-14.997,237.232z M-10.678,198.833c0.901-0.619,2.141-0.9,2.16-2.4
	c-0.877-0.701-1.771,0.184-2.4,0.48C-10.888,197.604-11.049,198.483-10.678,198.833z M20.043,229.552
	c0.827-1.359,2.161-3.127,0.72-4.799C19.101,224.857,16.894,229.759,20.043,229.552z"/>
<path d="M-80.277,485.632c1.253,0.907,3.433,0.887,4.08,2.4c-0.928-0.352-2.386-0.173-3.36-0.48
	C-78.717,486.311-80.2,486.603-80.277,485.632z"/>
<path d="M284.763,440.032c1.957,0.365,2.903,3.815,4.32,5.52c-0.85,1.111-1.655,0.77-2.88,0.24
	C286.303,443.029,286.628,441.089,284.763,440.032z"/>
<path d="M486.843,647.873c0.859,0.34,1.972,0.428,2.16,1.44C488.371,648.744,487.056,648.859,486.843,647.873z"/>
<path d="M540.603,419.152c0.364-1.333-1.084-2.475-0.72-4.56c1.012-0.377,1.443-1.104,2.399-0.961
	c1.124,0.168,0.761,0.902,1.681,2.4c0.777,1.268,2.135,2.169,0.72,3.84C543.003,420.898,541.077,419.285,540.603,419.152z"/>
<path d="M673.803,581.152c-0.107-0.681,0.891-2.55,0-3.6c-2.433-0.399-3.786,1.449-5.761,0.72c0.596-1.085,2.405-0.956,3.841-1.2
	c1.407-2.528,2.227-4.234,0-6.48c-0.98-0.14-2.019-0.221-1.92-1.44c2.213,0.823,4.49,3.368,6.96,1.2c-0.026-0.597-0.45-0.743,0-1.2
	c1.895,0.104,2.571,1.429,4.319,1.68c0.972-0.469,1.548-1.332,2.16-2.16c0.597,0.847-0.786,1.766-0.96,2.64
	c1.097,1.793,3.172,4.181,1.44,6.72c3.726,1.34,2.646,6.66-1.44,6.24c-1.143-0.118-1.366-1.395-2.64-1.2
	c0.013-0.787,0.683-0.917,0.479-1.92C678.105,581.845,675.941,579.238,673.803,581.152z"/>
</svg>
