<?xml version="1.0" encoding="utf-8"?>
<!-- Generator: Adobe Illustrator 17.0.2, SVG Export Plug-In . SVG Version: 6.00 Build 0)  -->
<!DOCTYPE svg PUBLIC "-//W3C//DTD SVG 1.1//EN" "http://www.w3.org/Graphics/SVG/1.1/DTD/svg11.dtd">
<svg version="1.1" id="Layer_1" xmlns="http://www.w3.org/2000/svg" xmlns:xlink="http://www.w3.org/1999/xlink" x="0px" y="0px"
	 width="152.116px" height="2.081px" viewBox="0 0 152.116 2.081" enable-background="new 0 0 152.116 2.081" xml:space="preserve">
<g>
	<g>
		<line fill="none" x1="0" y1="1.054" x2="151.86" y2="1.054"/>
		<g>
			<path fill="#4D4D4D" d="M36.297,2.081c0.018-0.041-0.486-0.081,0.296-0.1c2.464-0.038,4.444,0.098,6.91,0.059l0.177-0.066
				c1.908,0.028,3.895,0.065,5.924,0.096l11.156-0.047c-0.096-0.024-0.142-0.046,0.226-0.055c1.54-0.018,3.672,0.005,5.882,0.012
				l0.974-0.011c0.251-0.015,0.316-0.037,0.356-0.052c0.999,0.003,1.887,0.009,2.71,0.016c10.847-0.128,21.861-0.279,33.798-0.429
				c2.524-0.061,5.049-0.12,7.482-0.148c3.604-0.025,8.202,0.018,11.716,0.025c-0.539-0.23,8.027-0.343,6.317-0.576
				c2.341,0.005,5.858,0.013,6.04-0.053c0.544-0.195,2.347-0.421,8.567-0.539c2.435-0.027,6.173,0.055,7.031,0.016
				c1.352-0.063-3.156-0.139-1.804-0.201c-18.093-0.07-35.515,0.015-53.731,0.013c-6.201,0.102-48.025,0.146-58.767,0.102
				l-0.976,0.003c-5.86-0.013-12.978,0.005-17.938,0.093l-6.891,0.184c1.07,0.038,2.062,0.076,2.922,0.113
				C12.33,0.53,9.987,0.525,9.087,0.567C4.095,0.666,6.922,0.781,8.843,0.938c1.381,0.068-0.486,0.174,1.676,0.244
				C8.96,1.178,8.179,1.177,6.613,1.173C6.435,1.239,11.424,1.14,10.34,1.248C8.837,1.222,7.154,1.262,5.594,1.258
				c0.54,0.089,5.408,0.034,5.168,0.121C9.918,1.399,6.375,1.26,6.073,1.369c-0.06,0.022,1.502,0.025,2.284,0.027
				C3.549,1.429,0.9,1.533,5.289,1.652C3.765,1.648,1.611,1.602,0,1.617l0.012,0.002c0.804,0.004,2.19,0.026,2.933,0.028
				L0.202,1.641l0.479,0.045l2.082,0.025L0.941,1.708c0.455,0.036,0.977,0.07,1.551,0.103C4.656,1.879,6.729,1.983,7.9,1.985
				L36.297,2.081z"/>
		</g>
	</g>
</g>
</svg>
