<?xml version="1.0" encoding="utf-8"?>
<!-- Generator: Adobe Illustrator 17.0.0, SVG Export Plug-In . SVG Version: 6.00 Build 0)  -->
<!DOCTYPE svg PUBLIC "-//W3C//DTD SVG 1.1//EN" "http://www.w3.org/Graphics/SVG/1.1/DTD/svg11.dtd">
<svg version="1.1" id="Layer_1" xmlns="http://www.w3.org/2000/svg" xmlns:xlink="http://www.w3.org/1999/xlink" x="0px" y="0px"
	 width="512px" height="512px" viewBox="0 0 512 512" enable-background="new 0 0 512 512" xml:space="preserve">
<g>
	<path d="M133.48,236.619c-9.394,8.673-6.982,27.397,5.385,41.863c12.368,14.45,29.996,19.131,39.374,10.427
		c9.378-8.643,6.967-27.397-5.401-41.832C160.47,232.642,142.842,227.945,133.48,236.619z"/>
	<path d="M338.833,243.757c-11.006,15.625-11.694,34.52-1.55,42.223c10.129,7.671,27.257,1.314,38.247-14.325
		c10.99-15.593,11.679-34.473,1.55-42.191C366.95,221.777,349.808,228.18,338.833,243.757z"/>
	<path d="M226.129,240.125c16.517-3.977,25.111-28.65,19.179-55.107c-5.887-26.458-24.078-44.681-40.595-40.705
		c-16.501,4.008-25.08,28.681-19.194,55.139C191.452,225.879,209.628,244.102,226.129,240.125z"/>
	<path d="M309.057,144.313c-16.501-3.977-34.677,14.247-40.595,40.705s2.661,51.131,19.193,55.107
		c16.485,3.976,34.677-14.247,40.595-40.673C334.184,172.995,325.558,148.321,309.057,144.313z"/>
	<path d="M256,262.513c-39.374,0-68.932,62.7-68.932,83.444c0,51.005,29.558-1.613,68.932-1.613c39.39,0,68.932,52.618,68.932,1.613
		C324.932,325.213,295.39,262.513,256,262.513z"/>
</g>
</svg>
