<?xml version="1.0" encoding="utf-8"?>
<!-- Generator: Adobe Illustrator 17.0.0, SVG Export Plug-In . SVG Version: 6.00 Build 0)  -->
<!DOCTYPE svg PUBLIC "-//W3C//DTD SVG 1.1//EN" "http://www.w3.org/Graphics/SVG/1.1/DTD/svg11.dtd">
<svg version="1.1" id="Layer_1" xmlns="http://www.w3.org/2000/svg" xmlns:xlink="http://www.w3.org/1999/xlink" x="0px" y="0px"
	 width="512px" height="512px" viewBox="0 0 512 512" enable-background="new 0 0 512 512" xml:space="preserve">
<g>
	<g>
		<polygon points="159.984,240 240,240 240,160 216,184 175.984,144 143.984,176 183.984,216 		"/>
		<polygon points="328.016,296 352.016,272 272,272 272,351.984 296,327.984 336.016,367.984 368.016,335.984 		"/>
		<polygon points="327.984,215.984 367.984,176 335.984,143.984 296,183.984 272,159.984 272,240 351.984,240 		"/>
		<polygon points="183.984,296 143.984,336.016 175.984,368.016 215.984,328.016 240,352.016 240,272 159.984,272 		"/>
	</g>
</g>
</svg>
