<?xml version="1.0" encoding="utf-8"?>
<!-- Generator: Adobe Illustrator 17.0.0, SVG Export Plug-In . SVG Version: 6.00 Build 0)  -->
<!DOCTYPE svg PUBLIC "-//W3C//DTD SVG 1.1//EN" "http://www.w3.org/Graphics/SVG/1.1/DTD/svg11.dtd">
<svg version="1.1" id="Layer_1" xmlns="http://www.w3.org/2000/svg" xmlns:xlink="http://www.w3.org/1999/xlink" x="0px" y="0px"
	 width="512px" height="512px" viewBox="0 0 512 512" enable-background="new 0 0 512 512" xml:space="preserve">
<g>
	<g>
		<polygon points="224,144 144,144 144,224 168,200 208,240 240,208 200,168 		"/>
	</g>
	<g>
		<polygon points="288,368 368,368 368,288 344,312 304,272 272,304 312,344 		"/>
	</g>
	<g>
		<polygon points="368,224 368,144 288,144 312,168 272,208 304,240 344,200 		"/>
	</g>
	<g>
		<polygon points="144,288 144,368 224,368 200,344 240,304 208,272 168,312 		"/>
	</g>
</g>
</svg>
