<?xml version="1.0" encoding="utf-8"?>
<!-- Generator: Adobe Illustrator 17.0.0, SVG Export Plug-In . SVG Version: 6.00 Build 0)  -->
<!DOCTYPE svg PUBLIC "-//W3C//DTD SVG 1.1//EN" "http://www.w3.org/Graphics/SVG/1.1/DTD/svg11.dtd">
<svg version="1.1" id="Layer_1" xmlns="http://www.w3.org/2000/svg" xmlns:xlink="http://www.w3.org/1999/xlink" x="0px" y="0px"
	 width="512px" height="512px" viewBox="0 0 512 512" enable-background="new 0 0 512 512" xml:space="preserve">
<g>
	<rect x="248" y="144" width="16" height="32"/>
	<rect x="248" y="336" width="16" height="32"/>
	
		<rect x="315.875" y="172.123" transform="matrix(-0.7071 -0.7071 0.7071 -0.7071 419.8649 550.1574)" width="15.998" height="31.997"/>
	
		<rect x="180.126" y="307.88" transform="matrix(0.7071 0.7071 -0.7071 0.7071 284.1168 -38.1624)" width="15.998" height="31.997"/>
	
		<rect x="172.127" y="180.124" transform="matrix(-0.7071 -0.7071 0.7071 -0.7071 188.1271 454.1705)" width="31.997" height="15.998"/>
	
		<rect x="307.876" y="315.88" transform="matrix(0.7071 0.7071 -0.7071 0.7071 323.8777 -134.152)" width="31.997" height="15.998"/>
	<rect x="144" y="248" width="32" height="16"/>
	<rect x="336" y="248" width="32" height="16"/>
	<path d="M256,192c-35.297,0-64,28.719-64,64s28.703,64,64,64c35.281,0,64-28.719,64-64S291.281,192,256,192z M256,304v-96
		c26.469,0,48,21.531,48,48S282.469,304,256,304z"/>
</g>
</svg>
