<?xml version="1.0" encoding="utf-8"?>
<!-- Generator: Adobe Illustrator 17.0.0, SVG Export Plug-In . SVG Version: 6.00 Build 0)  -->
<!DOCTYPE svg PUBLIC "-//W3C//DTD SVG 1.1//EN" "http://www.w3.org/Graphics/SVG/1.1/DTD/svg11.dtd">
<svg version="1.1" id="Layer_1" xmlns="http://www.w3.org/2000/svg" xmlns:xlink="http://www.w3.org/1999/xlink" x="0px" y="0px"
	 width="512px" height="512px" viewBox="0 0 512 512" enable-background="new 0 0 512 512" xml:space="preserve">
<g>
	<g>
		<path d="M338.969,135.438C337.344,131.344,332.406,128,328,128H184c-4.398,0-9.336,3.344-10.969,7.438l-26.062,65.125
			C145.336,204.656,144,211.594,144,216v32c0,4.406,3.602,8,8,8h208c4.406,0,8-3.594,8-8v-32c0-4.406-1.344-11.344-2.969-15.438
			L338.969,135.438z M176,232c0,4.406-3.602,8-8,8l0,0c-4.398,0-8-3.594-8-8l0,0c0-4.406,3.602-8,8-8l0,0
			C172.398,224,176,227.594,176,232L176,232z M208,232c0,4.406-3.602,8-8,8l0,0c-4.398,0-8-3.594-8-8l0,0c0-4.406,3.602-8,8-8l0,0
			C204.398,224,208,227.594,208,232L208,232z M240,232c0,4.406-3.602,8-8,8l0,0c-4.398,0-8-3.594-8-8l0,0c0-4.406,3.602-8,8-8l0,0
			C236.398,224,240,227.594,240,232L240,232z M352,232c0,4.406-3.594,8-8,8l0,0c-4.406,0-8-3.594-8-8l0,0c0-4.406,3.594-8,8-8l0,0
			C348.406,224,352,227.594,352,232L352,232z"/>
	</g>
	<g>
		<path d="M144,312c0,4.406,3.602,8,8,8h208c4.406,0,8-3.594,8-8v-32c0-4.406-3.594-8-8-8H152c-4.398,0-8,3.594-8,8V312z M336,296
			c0-4.406,3.594-8,8-8l0,0c4.406,0,8,3.594,8,8l0,0c0,4.406-3.594,8-8,8l0,0C339.594,304,336,300.406,336,296L336,296z M224,296
			c0-4.406,3.602-8,8-8l0,0c4.398,0,8,3.594,8,8l0,0c0,4.406-3.602,8-8,8l0,0C227.602,304,224,300.406,224,296L224,296z M192,296
			c0-4.406,3.602-8,8-8l0,0c4.398,0,8,3.594,8,8l0,0c0,4.406-3.602,8-8,8l0,0C195.602,304,192,300.406,192,296L192,296z M160,296
			c0-4.406,3.602-8,8-8l0,0c4.398,0,8,3.594,8,8l0,0c0,4.406-3.602,8-8,8l0,0C163.602,304,160,300.406,160,296L160,296z"/>
	</g>
	<g>
		<path d="M144,376c0,4.406,3.602,8,8,8h208c4.406,0,8-3.594,8-8v-32c0-4.406-3.594-8-8-8H152c-4.398,0-8,3.594-8,8V376z M336,360
			c0-4.406,3.594-8,8-8l0,0c4.406,0,8,3.594,8,8l0,0c0,4.406-3.594,8-8,8l0,0C339.594,368,336,364.406,336,360L336,360z M224,360
			c0-4.406,3.602-8,8-8l0,0c4.398,0,8,3.594,8,8l0,0c0,4.406-3.602,8-8,8l0,0C227.602,368,224,364.406,224,360L224,360z M192,360
			c0-4.406,3.602-8,8-8l0,0c4.398,0,8,3.594,8,8l0,0c0,4.406-3.602,8-8,8l0,0C195.602,368,192,364.406,192,360L192,360z M160,360
			c0-4.406,3.602-8,8-8l0,0c4.398,0,8,3.594,8,8l0,0c0,4.406-3.602,8-8,8l0,0C163.602,368,160,364.406,160,360L160,360z"/>
	</g>
</g>
</svg>
