<?xml version="1.0" encoding="utf-8"?>
<!-- Generator: Adobe Illustrator 17.0.0, SVG Export Plug-In . SVG Version: 6.00 Build 0)  -->
<!DOCTYPE svg PUBLIC "-//W3C//DTD SVG 1.1//EN" "http://www.w3.org/Graphics/SVG/1.1/DTD/svg11.dtd">
<svg version="1.1" id="Layer_1" xmlns="http://www.w3.org/2000/svg" xmlns:xlink="http://www.w3.org/1999/xlink" x="0px" y="0px"
	 width="512px" height="512px" viewBox="0 0 512 512" enable-background="new 0 0 512 512" xml:space="preserve">
<g>
	<polygon points="352,208 352,160 304,160 316,172 256,232 196,172 208,160 160,160 160,208 172,196 232,256 172,316 160,304 
		160,352 208,352 196,340 256,280 316,340 304,352 352,352 352,304 340,316 280,256 340,196 	"/>
	<polygon points="368,128 320,128 320,144 368,144 368,192 384,192 384,144 384,128 	"/>
	<polygon points="384,368 384,320 368,320 368,368 320,368 320,384 368,384 384,384 	"/>
	<polygon points="144,384 192,384 192,368 144,368 144,320 128,320 128,368 128,384 	"/>
	<polygon points="128,144.016 128,192 144,192 144,144 192,144 192,128 144,128 128,128 	"/>
</g>
</svg>
