<?xml version="1.0" encoding="utf-8"?>
<!-- Generator: Adobe Illustrator 17.0.0, SVG Export Plug-In . SVG Version: 6.00 Build 0)  -->
<!DOCTYPE svg PUBLIC "-//W3C//DTD SVG 1.1//EN" "http://www.w3.org/Graphics/SVG/1.1/DTD/svg11.dtd">
<svg version="1.1" id="Layer_1" xmlns="http://www.w3.org/2000/svg" xmlns:xlink="http://www.w3.org/1999/xlink" x="0px" y="0px"
	 width="512px" height="512px" viewBox="0 0 512 512" enable-background="new 0 0 512 512" xml:space="preserve">
<g>
	<path d="M160,304c-8.844,0-16,7.156-16,16s7.156,16,16,16s16-7.156,16-16S168.844,304,160,304z"/>
	<path d="M160,240c-8.844,0-16,7.156-16,16s7.156,16,16,16s16-7.156,16-16S168.844,240,160,240z"/>
	<path d="M160,176c-8.844,0-16,7.156-16,16s7.156,16,16,16s16-7.156,16-16S168.844,176,160,176z"/>
	<path d="M368,184c0-4.422-3.578-8-8-8H216c-4.422,0-8,3.578-8,8v16c0,4.422,3.578,8,8,8h144c4.422,0,8-3.578,8-8V184z"/>
	<path d="M368,248c0-4.422-3.578-8-8-8H216c-4.422,0-8,3.578-8,8v16c0,4.422,3.578,8,8,8h144c4.422,0,8-3.578,8-8V248z"/>
	<path d="M368,312c0-4.422-3.578-8-8-8H216c-4.422,0-8,3.578-8,8v16c0,4.422,3.578,8,8,8h144c4.422,0,8-3.578,8-8V312z"/>
</g>
</svg>
