<?xml version="1.0" encoding="utf-8"?>
<!-- Generator: Adobe Illustrator 17.0.0, SVG Export Plug-In . SVG Version: 6.00 Build 0)  -->
<!DOCTYPE svg PUBLIC "-//W3C//DTD SVG 1.1//EN" "http://www.w3.org/Graphics/SVG/1.1/DTD/svg11.dtd">
<svg version="1.1" id="Layer_1" xmlns="http://www.w3.org/2000/svg" xmlns:xlink="http://www.w3.org/1999/xlink" x="0px" y="0px"
	 width="512px" height="512px" viewBox="0 0 512 512" enable-background="new 0 0 512 512" xml:space="preserve">
<g>
	<rect x="128" y="128" width="64" height="64"/>
	<polygon points="368,128 368,160 352,160 352,128 336,128 336,144 320,144 320,128 304,128 304,160 288,160 288,128 272,128 
		272,144 256,144 256,128 240,128 240,160 224,160 224,128 208,128 208,192 384,192 384,128 	"/>
	<polygon points="128,224 144,224 144,240 128,240 128,256 160,256 160,272 128,272 128,288 144,288 144,304 128,304 128,320 
		160,320 160,336 128,336 128,352 144,352 144,368 128,368 128,384 192,384 192,208 128,208 	"/>
</g>
</svg>
