<?xml version="1.0" encoding="utf-8"?>
<!-- Generator: Adobe Illustrator 17.0.0, SVG Export Plug-In . SVG Version: 6.00 Build 0)  -->
<!DOCTYPE svg PUBLIC "-//W3C//DTD SVG 1.1//EN" "http://www.w3.org/Graphics/SVG/1.1/DTD/svg11.dtd">
<svg version="1.1" id="Layer_1" xmlns="http://www.w3.org/2000/svg" xmlns:xlink="http://www.w3.org/1999/xlink" x="0px" y="0px"
	 width="512px" height="512px" viewBox="0 0 512 512" enable-background="new 0 0 512 512" xml:space="preserve">
<g>
	<g>
		<path fill="#1D1D1B" d="M224,128c-53.017,0-96,42.968-96,96c0,53.016,42.983,96,96,96c20.727,0,39.875-6.64,55.563-17.812
			l77.124,77.124c6.25,6.252,16.375,6.252,22.624,0c6.252-6.249,6.252-16.374,0-22.623l-77.123-77.126
			C313.36,263.875,320,244.727,320,224C320,170.968,277.016,128,224,128z M278.953,256.319c-5.53,9.36-13.273,17.104-22.634,22.634
			C246.805,284.563,235.843,288,224,288c-35.345,0-64-28.656-64-64s28.655-64,64-64c35.344,0,64,28.656,64,64
			C288,235.843,284.563,246.805,278.953,256.319z"/>
	</g>
</g>
</svg>
