<?xml version="1.0" encoding="utf-8"?>
<!-- Generator: Adobe Illustrator 17.0.0, SVG Export Plug-In . SVG Version: 6.00 Build 0)  -->
<!DOCTYPE svg PUBLIC "-//W3C//DTD SVG 1.1//EN" "http://www.w3.org/Graphics/SVG/1.1/DTD/svg11.dtd">
<svg version="1.1" id="Layer_1" xmlns="http://www.w3.org/2000/svg" xmlns:xlink="http://www.w3.org/1999/xlink" x="0px" y="0px"
	 width="512px" height="512px" viewBox="0 0 512 512" enable-background="new 0 0 512 512" xml:space="preserve">
<g>
	<path d="M344.5,240.688c-2.234-0.812-4.391-1.562-6.5-2.297c-15.922-5.547-25.547-8.891-25.547-22.641
		c0-11.141,7.781-19.219,18.453-19.219c8.219,0,14.312,3.781,19.781,12.266c0.516,0.797,1.5,1.078,2.281,0.609l16.078-9.094
		c0.438-0.234,0.766-0.688,0.906-1.188c0.141-0.531,0.094-1.078-0.156-1.562c-8.625-16.938-21.047-25.188-37.969-25.188
		c-25.797,0-42.453,17.281-42.453,44.016c0,27.328,16.109,38.406,45.844,49.234c17.219,6.359,24.844,9.75,24.844,23.328
		c0,15.25-12.422,26.234-29.391,25.594c-17.766-0.672-23.156-11.125-29.922-28.203c-11.438-28.938-24.484-62.719-24.609-63.062
		c-13.078-33.422-39.016-52.594-71.141-52.594c-42.469,0-77,38.281-77,85.328c0,47.031,34.531,85.297,77,85.297
		c23.156,0,44.859-11.375,59.547-31.203c0.422-0.594,0.516-1.375,0.25-2.062l-9.703-24.812c-0.281-0.688-0.891-1.141-1.562-1.172
		c-0.719-0.031-1.344,0.391-1.656,1.062c-9.172,19.391-27.125,31.438-46.875,31.438c-29.141,0-52.844-26.25-52.844-58.547
		s23.703-58.547,52.844-58.547c21.188,0,40.625,13.938,48.359,34.75l24.016,60.656l2.75,6.797
		c10.875,28.016,26.797,40.578,51.781,40.688c29.703,0,52.094-21.812,52.094-50.719C384,260.609,369.516,249.719,344.5,240.688z"/>
</g>
</svg>
