<?xml version="1.0" encoding="utf-8"?>
<!-- Generator: Adobe Illustrator 17.0.0, SVG Export Plug-In . SVG Version: 6.00 Build 0)  -->
<!DOCTYPE svg PUBLIC "-//W3C//DTD SVG 1.1//EN" "http://www.w3.org/Graphics/SVG/1.1/DTD/svg11.dtd">
<svg version="1.1" id="Layer_1" xmlns="http://www.w3.org/2000/svg" xmlns:xlink="http://www.w3.org/1999/xlink" x="0px" y="0px"
	 width="512px" height="512px" viewBox="0 0 512 512" enable-background="new 0 0 512 512" xml:space="preserve">
<path d="M367.531,375.812L260.578,131.5c-0.891-2.125-2.891-3.5-5.109-3.5l0,0c-2.219,0-4.219,1.375-5.109,3.5L144.469,375.797
	c-0.75,1.828-0.594,3.922,0.438,5.578c1.031,1.625,2.781,2.625,4.656,2.625H240v-48l-32.016-16v-16L240,320v-48h32v32l32.016-16v16
	L272,320v16l48.016-32v16L272,352v32h90.438c1.875,0,3.625-0.969,4.656-2.625S368.281,377.625,367.531,375.812z"/>
</svg>
