<?xml version="1.0" encoding="utf-8"?>
<!-- Generator: Adobe Illustrator 17.1.0, SVG Export Plug-In . SVG Version: 6.00 Build 0)  -->
<!DOCTYPE svg PUBLIC "-//W3C//DTD SVG 1.1//EN" "http://www.w3.org/Graphics/SVG/1.1/DTD/svg11.dtd">
<svg version="1.1" id="Layer_1" xmlns="http://www.w3.org/2000/svg" xmlns:xlink="http://www.w3.org/1999/xlink" x="0px" y="0px"
	 viewBox="4.9 4.9 127.1 127.1" enable-background="new 4.9 4.9 127.1 127.1" xml:space="preserve">
<g>
	<g>
		<path fill="#22C48A" d="M4.9,68.5c0-35.1,28.4-63.5,63.5-63.5c35.1,0,63.5,28.4,63.5,63.5c0,35.1-28.4,63.5-63.5,63.5
			C33.4,132,4.9,103.5,4.9,68.5z"/>
	</g>
	<g>
		<g>
			<g>
				<polygon fill="#F7D98B" points="49.5,32.7 37.9,72.9 37.9,75.4 62.8,74.8 62.7,72.9 				"/>
			</g>
		</g>
		<g>
			<g>
				<polygon fill="#626463" points="49.4,32.4 44.4,50 55.2,50 				"/>
			</g>
		</g>
		<g>
			<g>
				<g>
					<path fill="#E84849" d="M61,70.8l-3.6,4.1l0,56.1c1.8,0.3,3.6,0.6,5.4,0.7l0-56.9L61,70.8z"/>
				</g>
			</g>
			<g>
				<g>
					<path fill="#E84849" d="M49,128.9l0-54.1l-3.7-4.1l-3.4,4.1l0,51.3C44.2,127.2,46.6,128.1,49,128.9z"/>
				</g>
			</g>
			<g>
				<g>
					<path fill="#F06668" d="M41.9,74.8l-3-4.1l-1.1,4.1l0,49.3c1.3,0.7,2.7,1.4,4.1,2L41.9,74.8z"/>
				</g>
			</g>
			<g>
				<g>
					<path fill="#F06668" d="M57.3,131l0-56.1l-4.2-4.1L49,74.8l0,54.1C51.7,129.8,54.5,130.5,57.3,131z"/>
				</g>
			</g>
		</g>
	</g>
	<g>
		<g>
			<path fill="#276D69" d="M93.1,61.2c-1.1,11.3-4.9,8.6-8.8,8.6c-3.9,0-7.5,2.5-8.8-8.6c-1.3-11.1,8.8-30,8.8-30
				S94.2,50.1,93.1,61.2z"/>
		</g>
		<g>
			<path fill="#355957" d="M84.3,69.8c-3.9,0-7.5,2.5-8.8-8.6c-1.3-11.1,8.8-30,8.8-30V69.8z"/>
		</g>
		<g>
			<g>
				<g>
					<path fill="#E79E2D" d="M78.9,69.9l-5,56.5l-0.3,4c0.2-1.5,0.3-2.9,0.3-3.7L78.9,69.9c0-0.9,2.9-1.3,5.8-1.2c0,0,0,48.5,0,61.2
						c3.7-1,7.3-2.3,10.8-3.9l-5-56C90.5,68.3,78.9,68.1,78.9,69.9z"/>
				</g>
			</g>
			<g>
				<g>
					<path fill="#D68A28" d="M73.6,130.4c0,0.5-0.1,0.9-0.2,1.4c0,0,0,0,0.1,0L73.6,130.4z"/>
				</g>
			</g>
			<g>
				<g>
					<path fill="#D68A28" d="M84.7,129.9c0-12.7,0-61.2,0-61.2c-2.9,0-5.8,0.4-5.8,1.3l-5,56.8c0,0.7-0.1,2.1-0.3,3.7l-0.1,1.4
						C77.3,131.5,81.1,130.8,84.7,129.9z"/>
				</g>
			</g>
		</g>
		<g>
			<path fill="#CDCCCB" d="M79.2,69.9l-4.2,45.6l19.8,0.1l-4-45.7C90.8,68.4,79.2,68.2,79.2,69.9z"/>
		</g>
		<g>
			<path fill="#B1B1B2" d="M78.9,69.9l-3.9,45.6l9.8,0c0,0,0.4-46.8,0-46.8C81.8,68.7,78.9,69,78.9,69.9z"/>
		</g>
		<g>
			<path fill="#BFBEBE" d="M78.2,79.4l-2.9,33.1l19.4,0.3l-3-33.2C91.6,78.4,78.2,78.1,78.2,79.4z"/>
		</g>
		<g>
			<path fill="#AAAAAA" d="M78.9,69.9l-3.7,42.8l9.6-0.1c0,0,0.3-43.9,0-43.9C81.8,68.7,78.9,69,78.9,69.9z"/>
		</g>
	</g>
</g>
</svg>
