<?xml version="1.0" encoding="utf-8"?>
<!-- Generator: Adobe Illustrator 17.1.0, SVG Export Plug-In . SVG Version: 6.00 Build 0)  -->
<!DOCTYPE svg PUBLIC "-//W3C//DTD SVG 1.1//EN" "http://www.w3.org/Graphics/SVG/1.1/DTD/svg11.dtd">
<svg version="1.1" id="Layer_1" xmlns="http://www.w3.org/2000/svg" xmlns:xlink="http://www.w3.org/1999/xlink" x="0px" y="0px"
	 viewBox="0 90 612 612" enable-background="new 0 90 612 612" xml:space="preserve">
<g>
	<g>
		<path fill="#E84849" d="M0,396C0,227.2,137.2,90,306,90s306,137.2,306,306S474.8,702,306,702S0,564.8,0,396z"/>
	</g>
	<g>
		<path fill="none" d="M0,396C0,227.2,137.2,90,306,90s306,137.2,306,306S474.8,702,306,702S0,564.8,0,396z"/>
	</g>
	<g>
		<g>
			<g>
				<g>
					<path fill="#E79E2D" d="M366.4,434.8l99.3-99.3c25.4-25.4,0-41.2-25.9-67.1L93,615.2c13.9,13.4,29.3,25.9,45.6,36.5
						l169.3-203.4C328.1,455,349.6,451.6,366.4,434.8z"/>
				</g>
			</g>
			<g>
				<g>
					<path fill="#D68A28" d="M93,615.7l346.8-346.8c-25.4-25.4-41.2-51.3-67.1-25.9l-99.3,99.3c-16.8,16.8-20.1,38.4-13.4,58.5
						L54.2,570.1C65.7,586.4,78.7,601.8,93,615.7z"/>
				</g>
			</g>
		</g>
		<g>
			<path fill="#CDCCCB" d="M443.2,265.1c-25.4-25.4-45.1-48-70.5-22.1l-99.3,99.3c-12,12,80.6,105,92.6,92.6l99.3-99.3
				C491.1,310.1,468.6,290.5,443.2,265.1z"/>
		</g>
		<g>
			<path fill="#AAAAAA" d="M443.2,265.1c-25.4-25.4-45.1-48-70.5-22.1l-99.3,99.3c-6.2,6.2,13.9,32.1,37.4,55.6L443.2,265.1z"/>
		</g>
		<g>
			<path fill="#B2B2B2" d="M279.6,430.1c-16.8-16.8-23-38.4-23-38.4l-53.2,54.2c-6.7,6.7,52.8,65.2,59,58.5l53.7-53.7
				C316.6,450.7,296.9,447.3,279.6,430.1z"/>
		</g>
		<g>
			<path fill="#8D9091" d="M278.7,429.1c-16.3-16.8-22.1-37.4-22.1-37.4l-53.2,54.2c-3.4,3.4,9.1,19.2,24.5,34.5L278.7,429.1z"/>
		</g>
		<g>
			<path fill="#3D4040" d="M397.6,185.4l-83,115.6c-12,12,80.6,104.6,92.6,92.6l115.6-83C548.7,285.2,423.5,160,397.6,185.4z"/>
		</g>
		<g>
			<path fill="#343433" d="M397.6,185.4l-83,115.6c-5.8,5.8,13.4,31.2,36,54.2l128.5-126.6C448,197.4,410.6,172.5,397.6,185.4z"/>
		</g>
		<g>
			<path fill="#1D1E1E" d="M339.1,317.8c-1,0-1.9-0.5-2.9-1c-1.9-1.4-2.4-4.8-1-6.7l83-107.9c1.4-1.9,4.8-2.4,6.7-1
				c1.9,1.4,2.4,4.8,1,6.7l-83,107.9C342,317.3,340.5,317.8,339.1,317.8z"/>
		</g>
		<g>
			<path fill="#2E2F2F" d="M397.1,375.9c-1.4,0-2.9-0.5-3.8-1.9c-1.4-1.9-1.4-5.3,1-6.7l107.9-83c1.9-1.4,5.3-1.4,6.7,1
				c1.4,2.4,1.4,5.3-1,6.7L400,374.4C399,375.4,398.1,375.9,397.1,375.9z"/>
		</g>
		<g>
			<path fill="#2E2F2F" d="M377.5,356.2c-1.4,0-2.4-0.5-3.4-1.4c-1.9-1.9-1.4-4.8,0.5-6.7l104.6-95.4c1.9-1.9,4.8-1.4,6.7,0.5
				c1.9,1.9,1.4,4.8-0.5,6.7l-104.6,95C379.9,355.7,378.4,356.2,377.5,356.2z"/>
		</g>
		<g>
			<path fill="#1D1E1E" d="M357.3,336c-1,0-2.4-0.5-3.4-1.4c-1.9-1.9-1.9-4.8-0.5-6.7l95.4-104.6c1.9-1.9,4.8-1.9,6.7-0.5
				c1.9,1.9,1.9,4.8,0.5,6.7l-95,105C360.2,335.6,358.8,336,357.3,336z"/>
		</g>
	</g>
	<g>
		<path fill="none" d="M0,396C0,227.2,137.2,90,306,90s306,137.2,306,306S474.8,702,306,702S0,564.8,0,396z"/>
	</g>
</g>
</svg>
