<?xml version="1.0" encoding="utf-8"?>
<!-- Generator: Adobe Illustrator 17.1.0, SVG Export Plug-In . SVG Version: 6.00 Build 0)  -->
<!DOCTYPE svg PUBLIC "-//W3C//DTD SVG 1.1//EN" "http://www.w3.org/Graphics/SVG/1.1/DTD/svg11.dtd">
<svg version="1.1" id="Layer_1" xmlns="http://www.w3.org/2000/svg" xmlns:xlink="http://www.w3.org/1999/xlink" x="0px" y="0px"
	 viewBox="0 90 612 612" enable-background="new 0 90 612 612" xml:space="preserve">
<g>
	<g>
		<g>
			<circle fill="#DBF0F4" cx="306" cy="396" r="305.8"/>
		</g>
	</g>
	<g>
		<g>
			<path fill="#67B8CB" d="M491,335.1c-54.1,0-98.1,33.3-98.1,74.9c0,13.5,4.8,26.6,13.5,37.7l-13,44l54.6-14.5
				c13,4.8,27.5,7.7,43,7.7c54.1,0,98.1-33.3,98.1-74.9C589.1,368.5,545.1,335.1,491,335.1z"/>
		</g>
		<g>
			<g>
				<circle fill="#B7CAC4" cx="526.3" cy="406.1" r="12.1"/>
			</g>
			<g>
				<circle fill="#B7CAC4" cx="488.6" cy="406.1" r="12.1"/>
			</g>
			<g>
				<circle fill="#B7CAC4" cx="451.9" cy="406.1" r="12.1"/>
			</g>
		</g>
	</g>
	<g>
		<g>
			<path fill="#67B8CB" d="M364.4,170.9c-54.1,0-98.1,33.3-98.1,74.9c0,13.5,6.3,29.5,13.5,37.7c15,16.9,36.7,25.1,36.7,25.1l8.2,57
				l39.6-44.9c54.1,0,98.1-33.3,98.1-74.9C462.5,204.2,418.5,170.9,364.4,170.9z"/>
		</g>
		<g>
			<g>
				<circle fill="#B7CAC4" cx="399.2" cy="241.9" r="12.1"/>
			</g>
			<g>
				<circle fill="#B7CAC4" cx="362" cy="241.9" r="12.1"/>
			</g>
			<g>
				<circle fill="#B7CAC4" cx="325.3" cy="241.9" r="12.1"/>
			</g>
		</g>
	</g>
	<g>
		<g>
			<path fill="#67B8CB" d="M138.4,274.8c54.1,0,98.1,33.3,98.1,74.9c0,13.5-4.8,26.6-13.5,37.7l13,44l-54.6-14.5
				c-13,4.8-27.5,7.7-43,7.7c-54.1,0-98.1-33.3-98.1-74.9C40.3,308.1,84.3,274.8,138.4,274.8z"/>
		</g>
		<g>
			<g>
				<circle fill="#B7CAC4" cx="103.6" cy="345.8" r="12.1"/>
			</g>
			<g>
				<circle fill="#B7CAC4" cx="140.8" cy="345.8" r="12.1"/>
			</g>
			<g>
				<circle fill="#B7CAC4" cx="177.5" cy="345.8" r="12.1"/>
			</g>
		</g>
	</g>
	<g>
		<g>
			<path fill="#36858D" d="M345.1,593.1c0-18.4-1.9-29.5-1.9-29.5s24.2-33.3,25.6-79.2c0-7.2,3.4-59.4-58.9-61.8l0,0h-0.5h-0.5l0,0
				c-62.3,2.4-58.4,54.6-58.4,61.8c1.9,45.9,25.6,79.2,25.6,79.2s-1.9,11.1-1.9,29.5c-99.5,24.2-113.5,57-113.5,57v14.5
				c43.5,23.7,93.2,36.7,145.9,36.7c55.1,0,107.2-14.5,151.7-40.1v-11.1C458.6,650.1,444.6,617.2,345.1,593.1z"/>
		</g>
	</g>
</g>
</svg>
